<svg width="500" height="398" viewBox="0 0 500 398" fill="none" xmlns="http://www.w3.org/2000/svg">
<g clip-path="url(#clip0)">
<path opacity="0.1" d="M293.232 67.26C261.595 66.1588 231.458 55.9342 202.686 44.7454C173.913 33.5566 145.414 21.1589 114.534 15.2316C94.6727 11.4188 71.9565 10.8804 55.9569 21.5406C40.5538 31.8191 35.5774 49.5126 32.9035 65.9483C30.8895 78.3118 29.7065 91.3213 35.2255 102.897C39.053 110.934 45.8527 117.688 50.5504 125.411C66.9117 152.194 55.3508 185.222 37.6207 211.373C29.3105 223.644 19.6561 235.356 13.2425 248.405C6.82904 261.454 3.85692 276.426 9.46874 289.749C15.0366 302.964 28.2987 312.87 42.6606 319.845C71.8392 334.014 106.209 338.067 139.748 340.363C213.968 345.448 288.579 343.245 362.994 341.043C390.535 340.226 418.193 339.398 445.285 335.135C460.331 332.766 475.861 329.012 486.787 319.938C500.65 308.421 504.087 288.917 494.799 274.478C479.21 250.255 436.138 244.24 425.228 218.24C419.235 203.934 425.394 187.997 434.105 174.723C452.798 146.257 484.127 121.28 485.78 88.7419C486.914 66.3888 471.848 44.0112 448.56 33.4342C424.152 22.3091 390.296 23.7187 372.297 42.0681C353.75 60.9755 321.165 68.2291 293.232 67.26Z" fill="#F5F5F5"/>
<path d="M212.863 337.964L45.5448 337.147L28.9195 298.104L87.7068 293.831L77.4608 251.023L193.735 235.934L82.3932 197.179L92.2285 194.84L271.264 224.084L261.405 290.889L247.311 327.603L212.863 337.964Z" fill="#F5F5F5"/>
<path d="M48.1112 320.794C48.1112 320.794 58.3767 319.15 64.536 326.413C64.536 326.413 60.0192 329.976 50.3011 325.043L48.1112 320.794Z" fill="#F5F5F5"/>
<path d="M47.0357 320.633C47.0357 320.633 40.4853 328.704 43.7116 337.69C43.7116 337.69 49.0497 335.551 49.6314 324.656L47.0357 320.633Z" fill="#F5F5F5"/>
<path d="M41.1501 307.364C41.1501 307.364 45.2563 299.822 61.6812 310.379C61.6812 310.379 59.4912 315.45 52.2369 315.038C44.9826 314.627 43.0664 311.338 41.1501 307.364Z" fill="#F5F5F5"/>
<path d="M40.0893 306.821C40.0893 306.821 31.5689 305.842 30.7428 325.371C30.7428 325.371 36.1444 326.492 39.9818 320.315C43.8191 314.138 42.2451 310.673 40.0893 306.821Z" fill="#F5F5F5"/>
<path d="M35.1277 291.242C35.1277 291.242 39.9183 277.948 57.3013 287.404C57.3013 287.404 53.3319 299.601 36.9071 295.764L35.1277 291.242Z" fill="#F5F5F5"/>
<path d="M29.7896 271.37C29.7896 271.37 38.8233 257.939 54.8375 270.391C54.8375 270.391 49.2257 282.999 31.1584 276.147L29.7896 271.37Z" fill="#F5F5F5"/>
<path d="M27.8734 252.458C27.8734 252.458 38.4126 240.119 54.2704 252.458C54.2704 252.458 44.2787 263.284 27.8734 255.61V252.458Z" fill="#F5F5F5"/>
<path d="M26.2309 234.089C26.2309 234.089 36.907 221.206 52.1 233.403C52.1 233.403 40.0551 244.778 26.2309 237.104V234.089Z" fill="#F5F5F5"/>
<path d="M27.189 217.78C27.189 217.78 38.4322 201.198 52.6475 212.435C52.6475 212.435 40.6026 226.688 27.189 220.932V217.78Z" fill="#F5F5F5"/>
<path d="M29.7896 198.731C29.7896 198.731 41.6976 182.285 55.5219 194.894C55.5219 194.894 41.4239 209.146 29.7896 201.746V198.731Z" fill="#F5F5F5"/>
<path d="M33.759 181.703C33.759 181.703 47.857 166.246 60.1561 172.403C60.1561 172.403 45.4666 188.819 33.143 185.804L33.759 181.703Z" fill="#F5F5F5"/>
<path d="M38.6864 165.561C38.6864 165.561 54.9548 146.629 64.4186 152.953C64.4186 152.953 52.4324 167.636 37.5327 169.104L38.6864 165.561Z" fill="#F5F5F5"/>
<path d="M45.7989 146.839C45.7989 146.839 60.0387 131.383 70.4411 135.22C70.4411 135.22 58.2593 151.254 43.8876 151.665L45.7989 146.839Z" fill="#F5F5F5"/>
<path d="M52.237 129.327C52.237 129.327 67.9774 114.526 74.8211 117.13C74.8211 117.13 63.4606 133.575 51.5526 132.616L52.237 129.327Z" fill="#F5F5F5"/>
<path d="M58.5331 113.156C58.5331 113.156 72.0836 95.4718 79.4797 96.8423C79.4797 96.8423 71.2624 112.607 58.5331 114.952V113.156Z" fill="#F5F5F5"/>
<path d="M65.367 91.3507C65.367 91.3507 77.3435 77.7978 83.8157 77.8272C83.8157 77.8272 74.3616 95.9368 64.8733 95.7704L65.367 91.3507Z" fill="#F5F5F5"/>
<path d="M69.4146 76.8336L80.9853 48.6023C80.9853 48.6023 81.5622 74.1221 67.9432 82.0708L69.4146 76.8336Z" fill="#F5F5F5"/>
<path d="M74.1122 45.6998C74.1122 45.6998 76.0285 22.1231 74.7966 20.2044C74.7966 20.2044 83.0677 39.8069 74.034 56.1153L74.1122 45.6998Z" fill="#F5F5F5"/>
<path d="M34.6779 290.928C34.6779 290.928 22.6819 283.484 14.9143 301.696C14.9143 301.696 25.5905 308.793 36.0907 295.573L34.6779 290.928Z" fill="#F5F5F5"/>
<path d="M29.4034 270.611C29.4034 270.611 14.6895 263.891 7.55249 282.906C7.55249 282.906 18.9179 290.737 30.7428 275.418L29.4034 270.611Z" fill="#F5F5F5"/>
<path d="M27.189 253.588C27.189 253.588 16.6497 241.249 0.791916 253.588C0.791916 253.588 10.7837 264.415 27.189 256.74V253.588Z" fill="#F5F5F5"/>
<path d="M25.8691 234.089C25.8691 234.089 15.193 221.206 0 233.403C0 233.403 12.0449 244.778 25.8691 237.104V234.089Z" fill="#F5F5F5"/>
<path d="M27.189 218.25C27.189 218.25 19.7 199.675 3.42184 207.663C3.42184 207.663 12.2209 224.133 26.5242 221.334L27.189 218.25Z" fill="#F5F5F5"/>
<path d="M30.7331 198.638C30.7331 198.638 23.2881 179.74 6.78014 188.501C6.78014 188.501 16.8892 205.823 29.9998 201.555L30.7331 198.638Z" fill="#F5F5F5"/>
<path d="M35.3477 181.796C35.3477 181.796 32.4146 161.078 18.7273 159.223C18.7273 159.223 21.6309 181.072 33.5047 185.53L35.3477 181.796Z" fill="#F5F5F5"/>
<path d="M39.0335 165.6C39.0335 165.6 37.8896 140.638 26.5731 139.767C26.5731 139.767 26.9544 158.714 37.7576 169.134L39.0335 165.6Z" fill="#F5F5F5"/>
<path d="M46.9722 146.14C46.9722 146.14 43.5992 125.382 32.796 122.847C32.796 122.847 34.1354 142.948 45.9016 151.235L46.9722 146.14Z" fill="#F5F5F5"/>
<path d="M53.5176 129.498C53.5176 129.498 53.4052 107.874 46.8059 104.698C46.8059 104.698 42.7144 124.276 51.6063 132.259L53.5176 129.498Z" fill="#F5F5F5"/>
<path d="M59.0366 112.911C59.0366 112.911 58.1127 90.6459 51.2788 87.5085C51.2788 87.5085 48.9421 105.129 58.0149 114.369L59.0366 112.911Z" fill="#F5F5F5"/>
<path d="M66.3202 93.1274C66.3202 93.1274 66.2811 75.0178 61.4025 70.7694C61.4025 70.7694 56.5533 90.6067 63.7734 96.7689L66.3202 93.1274Z" fill="#F5F5F5"/>
<path d="M68.8426 75.9428L64.096 45.8026C64.096 45.8026 57.6483 70.5001 69.0675 81.3855L68.8426 75.9428Z" fill="#F5F5F5"/>
<path d="M69.7666 45.9837C69.7666 45.9837 57.5848 25.7205 57.8341 23.4691C57.8341 23.4691 59.1295 44.7062 74.4545 55.2832L69.7666 45.9837Z" fill="#F5F5F5"/>
<path d="M71.1939 39.9977C71.1939 39.9977 59.6965 11.2182 54.4953 8.88838C54.4953 8.88838 70.9202 17.2482 72.1521 39.1755L71.1939 39.9977Z" fill="#F5F5F5"/>
<path d="M64.8146 95.9417L64.0276 95.7019C73.731 64.0199 76.1507 43.8203 70.8469 38.7546L71.409 38.1574C77.0355 43.5022 74.7527 63.4815 64.8146 95.9417Z" fill="#444053"/>
<path d="M38.0949 170.123L36.9315 169.707C37.9629 166.804 39.0726 163.858 40.236 160.955C50.3647 135.68 58.9877 112.167 64.5165 94.1161L65.5284 93.6266C59.9899 111.712 51.5183 136.125 41.3799 161.435C40.2214 164.283 39.1166 167.215 38.0949 170.123Z" fill="#444053"/>
<path d="M62.5758 344.503C62.4193 344.332 46.6935 326.599 35.729 296.327C29.3044 278.604 25.7289 259.972 25.1359 241.127C24.3831 217.57 29.3203 191.267 37.7772 167.372L38.6962 168.449C19.7099 222.077 27.2526 268.032 37.259 295.705C48.1063 325.704 63.6561 343.24 63.8076 343.417L62.5758 344.503Z" fill="#444053"/>
<path d="M308.323 306.855C308.323 306.855 297.241 320.398 306.04 340.872L217.561 379.293L209.07 381.075L205.159 363.944L207.774 342.325V330.51L308.323 306.855Z" fill="#D5D6DB"/>
<path d="M28.9195 298.104L151.382 275.75L313.651 301.632L212.863 337.964L28.9195 298.104Z" fill="#F5F5F5"/>
<path d="M28.9195 298.104L151.382 275.75L313.651 301.632L212.863 337.964L28.9195 298.104Z" fill="#F5F5F5"/>
<path d="M28.9195 298.099C28.9195 298.099 17.4661 319.825 30.6646 339.893L212.267 379.293C212.267 379.293 200.994 361.986 212.849 337.964L28.9195 298.099Z" fill="#F5F5F5"/>
<path opacity="0.1" d="M28.9195 298.099C28.9195 298.099 17.4661 319.825 30.6646 339.893L212.267 379.293C212.267 379.293 200.994 361.986 212.849 337.964L28.9195 298.099Z" fill="black"/>
<path opacity="0.1" d="M34.3309 305.631C34.3309 305.631 27.7854 321.529 34.3309 331.817V305.631Z" fill="black"/>
<path d="M212.267 379.293L313.651 335.977C313.651 335.977 319.322 337.201 315.655 341.361C311.989 345.521 214.222 383.454 214.222 383.454L30.6646 339.893L212.267 379.293Z" fill="#F5F5F5"/>
<path opacity="0.1" d="M212.267 379.293L313.651 335.977C313.651 335.977 319.322 337.201 315.655 341.361C311.989 345.521 214.222 383.454 214.222 383.454L30.6646 339.893L212.267 379.293Z" fill="black"/>
<path opacity="0.1" d="M203.957 342.34C203.957 342.34 194.18 354.087 203.957 371.707V342.34Z" fill="black"/>
<path opacity="0.1" d="M251.289 342.141L207.436 356.79L207.591 357.254L251.444 342.606L251.289 342.141Z" fill="black"/>
<path opacity="0.1" d="M260.073 340.684L207.422 360.73L207.596 361.187L260.246 341.141L260.073 340.684Z" fill="black"/>
<path opacity="0.1" d="M268.139 340.613L207.716 365.376L207.901 365.829L268.324 341.066L268.139 340.613Z" fill="black"/>
<path opacity="0.1" d="M276.911 338.493L208.421 369.47L208.623 369.916L277.112 338.939L276.911 338.493Z" fill="black"/>
<path opacity="0.1" d="M284.281 338.503L208.964 371.465L209.159 371.914L284.477 338.951L284.281 338.503Z" fill="black"/>
<path opacity="0.1" d="M300.4 335.762L210.099 374.813L210.293 375.262L300.594 336.211L300.4 335.762Z" fill="black"/>
<path opacity="0.3" d="M74.4154 300.492L160.45 282.382L212.863 292.416L142.363 315.176L74.4154 300.492Z" fill="white"/>
<path d="M313.651 301.632C313.651 301.632 318.1 303.429 315.489 306.204C312.879 308.979 212.849 337.964 212.849 337.964L313.651 301.632Z" fill="#F5F5F5"/>
<path d="M356.859 259.78C356.859 259.78 345.782 273.318 354.581 293.796L266.102 332.218L257.611 334.01L253.7 316.879L256.355 295.265V283.435L356.859 259.78Z" fill="#D5D6DB"/>
<path d="M77.4608 251.023L199.919 228.675L362.192 254.557L261.404 290.889L77.4608 251.023Z" fill="#3A3768"/>
<path d="M77.4413 251.023C77.4413 251.023 65.983 272.75 79.1815 292.818L260.784 332.218C260.784 332.218 249.516 314.897 261.385 290.884L77.4413 251.023Z" fill="#3A3768"/>
<path opacity="0.1" d="M77.4413 251.023C77.4413 251.023 65.983 272.75 79.1815 292.818L260.784 332.218C260.784 332.218 249.516 314.897 261.385 290.884L203.957 278.438L77.4413 251.023Z" fill="black"/>
<path opacity="0.1" d="M82.8673 258.556C82.8673 258.556 76.3267 274.449 82.8673 284.742V258.556Z" fill="black"/>
<path d="M260.803 332.218L362.193 288.902C362.193 288.902 367.858 290.126 364.192 294.286C360.526 298.446 262.759 336.378 262.759 336.378L79.201 292.818L260.803 332.218Z" fill="#3A3768"/>
<path opacity="0.1" d="M260.803 332.218L362.193 288.902C362.193 288.902 367.858 290.126 364.192 294.286C360.526 298.446 262.759 336.378 262.759 336.378L79.201 292.818L260.803 332.218Z" fill="black"/>
<path opacity="0.1" d="M252.493 295.265C252.493 295.265 242.716 307.012 252.493 324.632V295.265Z" fill="black"/>
<path opacity="0.1" d="M299.829 295.071L255.976 309.72L256.131 310.184L299.984 295.536L299.829 295.071Z" fill="black"/>
<path opacity="0.1" d="M308.619 293.611L255.969 313.657L256.142 314.115L308.793 294.069L308.619 293.611Z" fill="black"/>
<path opacity="0.1" d="M316.678 293.534L256.255 318.297L256.441 318.75L316.864 293.987L316.678 293.534Z" fill="black"/>
<path opacity="0.1" d="M325.456 291.415L256.966 322.392L257.168 322.838L325.657 291.861L325.456 291.415Z" fill="black"/>
<path opacity="0.1" d="M332.819 291.419L257.501 324.381L257.697 324.829L333.014 291.867L332.819 291.419Z" fill="black"/>
<path opacity="0.1" d="M348.942 288.678L258.641 327.728L258.835 328.178L349.136 289.127L348.942 288.678Z" fill="black"/>
<path opacity="0.45" d="M122.957 253.417L208.992 235.307L261.405 245.341L190.905 268.1L122.957 253.417Z" fill="white"/>
<path d="M362.193 254.557C362.193 254.557 366.636 256.354 364.031 259.124C361.425 261.894 261.405 290.884 261.405 290.884L362.193 254.557Z" fill="#3A3768"/>
<path d="M361.454 205.926C361.454 205.926 350.372 230.237 359.172 250.71L270.692 278.364L262.221 280.16L258.31 263.03L260.925 241.411V229.581L361.454 205.926Z" fill="#D5D6DB"/>
<path d="M82.0705 197.174L204.533 174.821L366.807 200.703L266.014 237.035L82.0705 197.174Z" fill="#F5F5F5"/>
<path d="M82.0705 197.169C82.0705 197.169 70.5976 218.896 83.7961 238.964L265.398 278.364C265.398 278.364 254.126 261.043 265.995 237.035L82.0705 197.169Z" fill="#F5F5F5"/>
<path opacity="0.1" d="M82.0705 197.169C82.0705 197.169 70.5976 218.896 83.7961 238.964L265.398 278.364C265.398 278.364 254.126 261.043 265.995 237.035L82.0705 197.169Z" fill="black"/>
<path opacity="0.1" d="M87.4819 204.702C87.4819 204.702 80.9364 220.599 87.4819 230.888V204.702Z" fill="black"/>
<path d="M265.418 278.364L366.802 245.816C366.802 245.816 372.473 247.039 368.806 251.2C365.14 255.36 267.373 282.524 267.373 282.524L83.8156 238.963L265.418 278.364Z" fill="#F5F5F5"/>
<path opacity="0.1" d="M265.418 278.364L366.802 245.816C366.802 245.816 372.473 247.039 368.806 251.2C365.14 255.36 267.373 282.524 267.373 282.524L83.8156 238.963L265.418 278.364Z" fill="black"/>
<path opacity="0.1" d="M257.108 241.411C257.108 241.411 247.331 253.158 257.108 270.778V241.411Z" fill="black"/>
<path opacity="0.1" d="M304.445 241.216L260.592 255.865L260.747 256.329L304.6 241.681L304.445 241.216Z" fill="black"/>
<path opacity="0.1" d="M313.232 239.759L260.581 259.805L260.755 260.262L313.405 240.216L313.232 239.759Z" fill="black"/>
<path opacity="0.1" d="M321.287 239.684L260.863 264.447L261.049 264.9L321.472 240.137L321.287 239.684Z" fill="black"/>
<path opacity="0.1" d="M330.071 237.56L261.581 268.538L261.782 268.984L330.272 238.006L330.071 237.56Z" fill="black"/>
<path opacity="0.1" d="M337.436 237.569L262.119 270.531L262.315 270.979L337.632 238.017L337.436 237.569Z" fill="black"/>
<path opacity="0.1" d="M353.558 234.831L263.257 273.882L263.451 274.331L353.751 235.28L353.558 234.831Z" fill="black"/>
<path opacity="0.3" d="M127.566 199.563L213.601 181.453L266.014 191.487L195.514 214.246L127.566 199.563Z" fill="white"/>
<path d="M366.802 200.703C366.802 200.703 371.251 202.5 368.64 205.275C366.03 208.05 266.014 237.035 266.014 237.035L366.802 200.703Z" fill="#F5F5F5"/>
<path d="M151.744 52.1263C151.744 52.1263 133.168 51.0054 135.339 64.0541C135.339 64.0541 134.904 66.3594 136.991 67.4069C136.991 67.4069 137.025 66.428 138.898 66.7657C139.566 66.8806 140.245 66.9135 140.921 66.8636C141.833 66.8011 142.699 66.4438 143.39 65.8455C143.39 65.8455 148.616 63.6821 150.649 55.1266C150.649 55.1266 152.155 53.2618 152.116 52.7821L148.968 54.1232C148.968 54.1232 150.038 56.3894 149.197 58.2737C149.197 58.2737 149.095 54.2064 148.489 54.2994C148.366 54.2994 146.861 55.0874 146.861 55.0874C146.861 55.0874 148.704 59.0373 147.31 61.9054C147.31 61.9054 147.838 57.0403 146.284 55.3713L144.074 56.6635C144.074 56.6635 146.23 60.7406 144.769 64.0688C144.769 64.0688 145.145 58.9639 143.61 56.9767L141.606 58.5429C141.606 58.5429 143.634 62.5613 142.398 65.3218C142.398 65.3218 142.236 59.3799 141.176 58.9296C141.176 58.9296 139.421 60.4763 139.157 61.1125C139.157 61.1125 140.545 64.0492 139.68 65.5714C139.68 65.5714 139.157 61.6118 138.702 61.5922C138.702 61.5922 136.957 64.2156 136.776 65.9972C136.861 64.3363 137.378 62.7265 138.277 61.3279C137.271 61.5184 136.343 62 135.608 62.713C135.608 62.713 135.877 60.858 138.712 60.6965C138.712 60.6965 140.154 58.7045 140.54 58.587C140.54 58.587 137.72 58.3472 136.013 59.1058C136.013 59.1058 137.519 57.3585 141.053 58.1269L143.009 56.5117C143.009 56.5117 139.303 56.0223 137.729 56.5656C137.729 56.5656 139.543 55.0189 143.542 56.1446L145.697 54.8574C145.697 54.8574 142.535 54.1771 140.653 54.4218C140.653 54.4218 142.637 53.3499 146.328 54.5099L147.863 53.8198C147.863 53.8198 145.551 53.3646 144.871 53.2912C144.192 53.2177 144.157 53.0317 144.157 53.0317C145.625 52.7904 147.131 52.9598 148.508 53.5212C148.508 53.5212 151.808 52.3318 151.744 52.1263Z" fill="#F5F5F5"/>
<path opacity="0.1" d="M413.075 105.76C413.075 105.76 394.5 104.639 396.67 117.688C396.67 117.688 396.235 119.993 398.322 121.041C398.322 121.041 398.357 120.062 400.229 120.399C400.897 120.512 401.576 120.545 402.253 120.497C403.156 120.431 404.013 120.074 404.697 119.479C404.697 119.479 409.927 117.316 411.956 108.76C411.956 108.76 413.462 106.896 413.422 106.416L410.284 107.757C410.284 107.757 411.355 110.023 410.514 111.908C410.514 111.908 410.411 107.84 409.81 107.933C409.688 107.933 408.177 108.721 408.177 108.721C408.177 108.721 410.02 112.671 408.632 115.539C408.632 115.539 409.16 110.674 407.6 109.005L405.391 110.297C405.391 110.297 407.547 114.374 406.085 117.703C406.085 117.703 406.461 112.598 404.926 110.61L402.927 112.177C402.927 112.177 404.951 116.195 403.714 118.956C403.714 118.956 403.553 113.014 402.492 112.563C402.492 112.563 400.742 114.11 400.473 114.746C400.473 114.746 401.861 117.683 401.001 119.205C401.001 119.205 400.473 115.246 400.023 115.226C400.023 115.226 398.278 117.849 398.097 119.631C398.182 117.969 398.701 116.359 399.603 114.962C398.596 115.153 397.667 115.634 396.929 116.347C396.929 116.347 397.203 114.492 400.033 114.33C400.033 114.33 401.475 112.338 401.861 112.216C401.861 112.216 399.046 111.981 397.335 112.74C397.335 112.74 398.84 110.992 402.375 111.761L404.33 110.146C404.33 110.146 400.62 109.656 399.051 110.199C399.051 110.199 400.859 108.653 404.863 109.778L407.014 108.491C407.014 108.491 403.851 107.811 401.969 108.056C401.969 108.056 403.954 106.984 407.644 108.144L409.184 107.454C409.184 107.454 406.867 106.998 406.188 106.925C405.508 106.852 405.474 106.666 405.474 106.666C406.941 106.421 408.448 106.591 409.825 107.155C409.825 107.155 413.134 105.966 413.075 105.76Z" fill="#F5F5F5"/>
<path opacity="0.1" d="M183.03 132.738C183.03 132.738 174.935 115.936 164.63 124.217C164.63 124.217 162.406 124.961 162.513 127.296C162.513 127.296 163.369 126.85 163.98 128.652C164.208 129.288 164.51 129.896 164.879 130.463C165.379 131.23 166.115 131.814 166.976 132.127C166.976 132.127 171.41 135.641 179.862 133.243C179.862 133.243 182.223 133.649 182.609 133.365L179.911 131.275C179.911 131.275 178.444 133.316 176.401 133.497C176.401 133.497 179.901 131.427 179.525 130.947C179.446 130.849 178.058 129.905 178.058 129.905C178.058 129.905 175.511 133.443 172.334 133.624C172.334 133.624 176.831 131.716 177.525 129.537L175.326 128.236C175.326 128.236 172.818 132.112 169.205 132.455C169.205 132.455 173.84 130.296 174.822 127.986L172.485 127.007C172.485 127.007 169.968 130.737 166.957 131.006C166.957 131.006 172.06 127.966 171.933 126.816C171.933 126.816 169.728 126.043 169.044 126.116C169.044 126.116 167.177 128.754 165.417 128.754C165.417 128.754 168.609 126.361 168.413 125.974C168.413 125.974 165.275 125.73 163.623 126.464C165.112 125.723 166.768 125.385 168.428 125.485C167.77 124.699 166.896 124.122 165.915 123.826C165.915 123.826 167.666 123.16 169.186 125.553C169.186 125.553 171.63 125.842 171.918 126.121C171.918 126.121 170.75 123.547 169.259 122.426C169.259 122.426 171.518 122.881 172.549 126.341L174.92 127.281C174.92 127.281 173.556 123.796 172.3 122.695C172.3 122.695 174.529 123.522 175.502 127.589L177.672 128.842C177.672 128.842 176.729 125.744 175.594 124.222C175.594 124.222 177.496 125.436 178.283 129.224L179.637 130.232C179.637 130.232 178.904 127.986 178.659 127.359C178.415 126.733 178.537 126.606 178.537 126.606C179.467 127.768 180.056 129.166 180.238 130.644C180.238 130.644 182.854 132.885 183.03 132.738Z" fill="#F5F5F5"/>
<path opacity="0.1" d="M370.635 82.0218C370.635 82.0218 362.544 65.219 352.235 73.5005C352.235 73.5005 350.016 74.2445 350.118 76.5791C350.118 76.5791 350.979 76.1386 351.585 77.9349C351.813 78.5742 352.116 79.1839 352.489 79.7508C352.987 80.5172 353.722 81.0998 354.581 81.41C354.581 81.41 359.02 84.9242 367.467 82.5308C367.467 82.5308 369.828 82.9322 370.219 82.6483L367.535 80.5534C367.535 80.5534 366.069 82.5993 364.031 82.7804C364.031 82.7804 367.526 80.7052 367.149 80.2255C367.071 80.1276 365.683 79.183 365.683 79.183C365.683 79.183 363.141 82.7217 359.959 82.9028C359.959 82.9028 364.461 80.994 365.155 78.8208L362.921 77.5287C362.921 77.5287 360.418 81.4002 356.801 81.7477C356.801 81.7477 361.435 79.5843 362.422 77.2741L360.081 76.2952C360.081 76.2952 357.563 80.0297 354.557 80.294C354.557 80.294 359.655 77.2546 359.528 76.1093C359.528 76.1093 357.329 75.331 356.644 75.4093C356.644 75.4093 354.777 78.0426 353.012 78.0426C353.012 78.0426 356.209 75.6492 356.014 75.2625C356.014 75.2625 352.875 75.0178 351.218 75.752C352.707 75.0108 354.364 74.6733 356.023 74.7731C355.367 73.9864 354.496 73.4096 353.516 73.1138C353.516 73.1138 355.266 72.4482 356.786 74.8416C356.786 74.8416 359.23 75.1352 359.519 75.4142C359.519 75.4142 358.35 72.8348 356.854 71.714C356.854 71.714 359.113 72.1741 360.144 75.6541L362.52 76.5938C362.52 76.5938 361.156 73.104 359.9 72.0028C359.9 72.0028 362.129 72.8299 363.097 76.8973L365.272 78.1503C365.272 78.1503 364.324 75.0569 363.19 73.5299C363.19 73.5299 365.096 74.7437 365.878 78.532L367.232 79.5403C367.232 79.5403 366.504 77.2937 366.255 76.6672C366.005 76.0407 366.132 75.9184 366.132 75.9184C367.06 77.0815 367.647 78.4792 367.829 79.9563C367.829 79.9563 370.483 82.1784 370.635 82.0218Z" fill="#F5F5F5"/>
<path opacity="0.1" d="M396.489 165.135C396.489 165.135 388.399 148.327 378.075 156.609C378.075 156.609 375.855 157.353 375.958 159.688C375.958 159.688 376.818 159.247 377.425 161.043C377.651 161.682 377.953 162.292 378.324 162.859C378.822 163.626 379.557 164.208 380.416 164.518C380.416 164.518 384.855 168.038 393.307 165.639C393.307 165.639 395.663 166.045 396.054 165.757L393.356 163.667C393.356 163.667 391.889 165.713 389.846 165.894C389.846 165.894 393.341 163.818 392.965 163.339C392.886 163.241 391.498 162.296 391.498 162.296C391.498 162.296 388.956 165.835 385.774 166.021C385.774 166.021 390.276 164.107 390.97 161.934L388.766 160.632C388.766 160.632 386.263 164.509 382.645 164.851C382.645 164.851 387.28 162.688 388.267 160.378L385.925 159.399C385.925 159.399 383.408 163.128 380.402 163.398C380.402 163.398 385.505 160.358 385.378 159.208C385.378 159.208 383.173 158.43 382.489 158.508C382.489 158.508 380.622 161.141 378.857 161.141C378.857 161.141 382.054 158.748 381.858 158.361C381.858 158.361 378.72 158.116 377.063 158.851C378.554 158.11 380.212 157.772 381.873 157.872C381.216 157.084 380.342 156.507 379.36 156.212C379.36 156.212 381.11 155.542 382.631 157.94C382.631 157.94 385.075 158.229 385.363 158.508C385.363 158.508 384.195 155.933 382.704 154.808C382.704 154.808 384.962 155.268 385.994 158.748L388.365 159.688C388.365 159.688 387.001 156.198 385.745 155.101C385.745 155.101 387.974 155.924 388.942 159.996L391.117 161.244C391.117 161.244 390.169 158.151 389.034 156.624C389.034 156.624 390.941 157.837 391.728 161.631L393.082 162.61C393.082 162.61 392.349 160.363 392.104 159.736C391.86 159.11 391.982 158.988 391.982 158.988C392.912 160.149 393.499 161.548 393.678 163.026C393.678 163.026 396.338 165.282 396.489 165.135Z" fill="#F5F5F5"/>
<path opacity="0.1" d="M98.7202 383.806C104.927 383.806 109.959 383.243 109.959 382.548C109.959 381.853 104.927 381.29 98.7202 381.29C92.5135 381.29 87.4819 381.853 87.4819 382.548C87.4819 383.243 92.5135 383.806 98.7202 383.806Z" fill="#F5F5F5"/>
<path opacity="0.1" d="M25.0479 362.427C31.2547 362.427 36.2862 361.864 36.2862 361.169C36.2862 360.474 31.2547 359.911 25.0479 359.911C18.8412 359.911 13.8096 360.474 13.8096 361.169C13.8096 361.864 18.8412 362.427 25.0479 362.427Z" fill="#F5F5F5"/>
<path opacity="0.1" d="M154.878 398.005C161.084 398.005 166.116 397.442 166.116 396.747C166.116 396.052 161.084 395.489 154.878 395.489C148.671 395.489 143.639 396.052 143.639 396.747C143.639 397.442 148.671 398.005 154.878 398.005Z" fill="#F5F5F5"/>
<path opacity="0.1" d="M442.655 367.077C448.861 367.077 453.893 366.513 453.893 365.819C453.893 365.124 448.861 364.561 442.655 364.561C436.448 364.561 431.416 365.124 431.416 365.819C431.416 366.513 436.448 367.077 442.655 367.077Z" fill="#F5F5F5"/>
<path opacity="0.1" d="M349.136 360.973C355.342 360.973 360.374 360.41 360.374 359.715C360.374 359.021 355.342 358.457 349.136 358.457C342.929 358.457 337.897 359.021 337.897 359.715C337.897 360.41 342.929 360.973 349.136 360.973Z" fill="#F5F5F5"/>
<path opacity="0.1" d="M288.638 390.742C295.978 390.742 301.929 389.718 301.929 388.456C301.929 387.193 295.978 386.17 288.638 386.17C281.297 386.17 275.346 387.193 275.346 388.456C275.346 389.718 281.297 390.742 288.638 390.742Z" fill="#F5F5F5"/>
<path d="M294.567 365.481C294.567 365.481 276.06 375.055 285.621 386.331C285.621 386.331 286.521 388.779 289.121 388.607C289.121 388.607 288.603 387.658 290.588 386.899C291.294 386.626 291.965 386.269 292.587 385.837C293.428 385.255 294.056 384.415 294.376 383.444C294.376 383.444 298.16 378.373 295.227 368.99C295.227 368.99 295.608 366.338 295.276 365.907L293.027 368.995C293.027 368.995 295.349 370.557 295.618 372.852C295.618 372.852 293.174 369 292.685 369.426C292.578 369.514 291.571 371.115 291.571 371.115C291.571 371.115 295.599 373.851 295.897 377.404C295.897 377.404 293.629 372.426 291.179 371.717L289.776 374.223C289.776 374.223 294.176 376.905 294.665 380.938C294.665 380.938 292.108 375.823 289.498 374.79L288.466 377.438C288.466 377.438 292.71 380.14 293.101 383.498C293.101 383.498 289.552 377.884 288.276 378.06C288.276 378.06 287.474 380.546 287.582 381.315C287.582 381.315 290.578 383.321 290.632 385.294C290.632 385.294 287.865 381.794 287.44 382.024C287.44 382.024 287.264 385.543 288.114 387.374C288.114 387.374 286.648 384.76 286.887 382.024C286.03 382.783 285.413 383.777 285.113 384.883C285.113 384.883 284.316 382.949 286.941 381.168C286.941 381.168 287.191 378.432 287.494 378.094C287.494 378.094 284.653 379.484 283.446 381.187C283.446 381.187 283.891 378.647 287.743 377.384L288.721 374.702C288.721 374.702 284.869 376.337 283.681 377.776C283.681 377.776 284.536 375.255 289.024 374.046L290.353 371.599C290.353 371.599 286.931 372.754 285.26 374.046C285.26 374.046 286.555 371.878 290.764 370.88L291.844 369.338C291.844 369.338 289.361 370.224 288.667 370.542C287.973 370.86 287.836 370.703 287.836 370.703C289.105 369.629 290.646 368.927 292.289 368.677C292.289 368.677 294.738 365.647 294.567 365.481Z" fill="#F5F5F5"/>
<path d="M349.497 184.664C346.3 175.967 328.702 175.149 321.067 177.366C315.641 178.947 304.202 180.729 298.092 181.625L297.696 181.248C298.488 181.013 298.507 180.435 298.409 179.579C298.352 178.45 298.369 177.318 298.458 176.192C302.203 177.357 305.537 174.601 305.537 174.601C309.936 172.643 308.753 164.264 309.594 161.973C310.224 160.26 310.904 150.168 311.207 145.136H311.271L311.305 143.448C311.349 142.718 311.368 142.292 311.368 142.292C311.368 142.292 311.799 129.988 312.639 127.496C313.421 125.206 314.057 113.665 314.155 111.834C314.155 111.677 314.155 111.594 314.155 111.594L314.091 110.527C314.135 109.749 314.155 108.883 314.15 107.972C314.15 103.788 313.715 98.5162 313.661 97.6646C313.661 97.5422 313.661 97.3954 313.661 97.2192C313.695 95.4327 313.47 86.4856 305.869 83.1035C303.068 81.8505 299.7 80.3577 296.439 78.904C295.599 71.6357 293.677 64.4065 293.844 57.0844C293.844 55.9831 293.941 54.8819 294.049 53.7855C294.049 54.1036 294.015 54.4267 294.01 54.7644C294.01 55.4741 294.01 56.1887 294.01 56.8984C294.298 47.7408 297.754 38.5343 297.432 29.5725C297.402 30.4486 297.339 31.3296 297.256 32.2106C297.424 29.1794 297.108 26.1406 296.317 23.2096C296.024 22.1769 295.628 21.1099 294.782 20.4198C293.983 19.864 293.066 19.5005 292.103 19.3577C289.79 18.7649 287.44 18.3266 285.069 18.046C284.709 16.9416 284.174 15.9023 283.485 14.9673C278.528 8.15421 271.186 1.75223 262.504 0.28388C258.149 -0.450292 253.138 0.161518 250.176 3.2793C249.867 3.55319 249.576 3.84752 249.306 4.16031C247.712 6.06427 247.028 8.56535 245.395 10.4644C245.288 10.5917 245.165 10.7091 245.048 10.8315C241.851 13.6948 236.87 14.2919 233.316 16.8615C232.69 17.3228 232.103 17.8352 231.561 18.3935C230.129 19.8143 228.845 21.3771 227.729 23.0579C226.13 25.3094 224.488 27.6538 223.979 30.3409C222.958 35.7248 226.619 40.8298 227.299 46.248C228.814 58.3716 215.415 69.1297 217.952 81.0918C218.629 84.0306 220.124 86.717 222.264 88.8398C217.038 93.5777 212.589 98.1736 212.589 98.1736V98.4477H211.763L211.846 99.4266H211.763L212.218 104.737L211.763 112.47C211.763 112.47 211.763 112.554 211.763 112.71V112.749V112.96C211.763 112.96 211.763 113.043 211.763 113.2H211.793C211.944 116.034 212.545 126.224 213.259 128.373C214.1 130.864 214.525 143.169 214.525 143.169C214.525 143.169 215.454 160.559 216.305 162.859C217.155 165.159 215.948 173.514 220.362 175.487C221.653 176.479 223.182 177.113 224.796 177.327C224.571 179.158 224.713 180.484 225.441 180.9C225.753 181.084 226.106 181.185 226.467 181.194C226.168 181.639 225.902 182.105 225.671 182.589C223.919 182.406 222.197 181.999 220.548 181.38C215.806 179.422 200.07 175.017 195.5 178.115C190.929 181.213 179.93 184.023 185.009 196.494C190.088 208.965 192.454 209.278 192.454 209.278C194.018 210.415 195.389 211.795 196.517 213.365C198.042 215.661 212.252 220.913 215.806 220.913C217.317 220.889 218.827 220.964 220.328 221.138C220.328 221.138 216.471 224.525 216.984 226.492C217.497 228.46 215.811 244.21 215.811 244.21C215.811 244.21 219.722 248.155 221.393 242.982L221.452 243.06C221.765 243.486 223.456 245.409 226.639 242.982C227.941 241.992 229.324 241.115 230.774 240.358L246.182 238.175C247.789 238.075 249.399 238.063 251.007 238.141C253.451 238.342 255.851 236.893 257.362 235.772C260.554 236.986 264.142 238.312 265.848 238.797C269.309 239.776 285.216 244.049 288.936 242.713C289.709 242.405 290.397 241.914 290.94 241.283L294.489 241.396L292.827 241.729C292.827 241.729 296.063 241.783 300.462 241.841L300.277 241.949L305.796 241.9C313.871 241.974 322.944 241.998 324.137 241.729C326.004 241.313 335.707 241.606 338.567 241.729H339.364C339.364 241.729 350.025 239.6 345.626 228.768C342.243 220.448 331.846 218.03 327.231 217.364C328.531 217.105 329.651 216.904 330.394 216.787C333.615 216.297 339.872 213.36 340.381 212.357C340.889 211.354 346.134 208.441 347.488 206.782C348.842 205.123 352.709 193.362 349.497 184.664ZM261.189 209.004L260.666 209.176L260.314 209.293L259.64 209.959C259.102 209.597 258.525 209.215 257.924 208.823C258.985 208.887 260.075 208.95 261.189 209.004Z" fill="url(#paint0_linear)"/>
<path d="M292.358 157.397C292.358 157.397 299.837 176.975 304.09 175.017C308.342 173.059 307.189 164.739 308 162.458C308.812 160.177 309.711 142.88 309.711 142.88C309.711 142.88 310.122 130.644 310.933 128.167C311.686 125.891 312.297 114.414 312.4 112.607C312.4 112.451 312.4 112.368 312.4 112.368L311.593 98.1736L307.027 97.0332L296.439 100.949L294.973 109.333L294.401 112.607L294.156 114.002L292.358 157.397Z" fill="#BE6F72"/>
<path opacity="0.1" d="M294.821 154.118C294.821 154.118 301.958 159.966 304.109 160.48C306.26 160.994 307.58 165.556 307.58 165.556" fill="black"/>
<path d="M233.868 158.253C233.868 158.253 226.389 177.831 222.136 175.874C217.884 173.916 219.037 165.595 218.226 163.314C217.414 161.033 216.515 143.736 216.515 143.736C216.515 143.736 216.104 131.5 215.293 129.024C214.54 126.748 213.929 115.27 213.826 113.464C213.826 113.307 213.826 113.224 213.826 113.224L214.638 99.0301L219.203 97.8897L229.792 101.805L231.258 110.19L231.83 113.464L232.074 114.859L233.868 158.253Z" fill="#BE6F72"/>
<path d="M282.571 53.4821H265.877V79.5354H282.571V53.4821Z" fill="#3E373A"/>
<path opacity="0.1" d="M282.571 53.4821H265.877V79.5354H282.571V53.4821Z" fill="black"/>
<path d="M230.935 177.753C230.935 177.753 225.231 184.033 227.347 185.173C229.464 186.313 243.156 207.688 243.156 207.688C243.156 207.688 288.129 213.233 296.61 204.913C305.092 196.592 304.921 181.727 304.921 181.727C304.921 181.727 298.106 183.196 297.363 182.398C296.62 181.6 292.538 177.753 292.538 177.753C292.538 177.753 234.846 174.249 230.935 177.753Z" fill="#4B4B5B"/>
<path opacity="0.02" d="M230.935 177.753C230.935 177.753 225.231 184.033 227.347 185.173C229.464 186.313 243.156 207.688 243.156 207.688C243.156 207.688 288.129 213.233 296.61 204.913C305.092 196.592 304.921 181.727 304.921 181.727C304.921 181.727 298.106 183.196 297.363 182.398C296.62 181.6 292.538 177.753 292.538 177.753C292.538 177.753 234.846 174.249 230.935 177.753Z" fill="black"/>
<path d="M311.896 98.3792L297.231 110.126L292.798 110.449L291.17 110.566L263.829 112.573L235.477 110.498L231.258 110.19L225.881 109.798L214.638 99.0301C214.638 99.0301 222.596 90.4942 229.567 84.7333C232.314 82.4574 234.91 80.6171 236.801 79.8927L237.124 79.7801C238.314 79.3155 239.376 78.5739 240.223 77.6168C245.728 71.9343 250.816 57.9116 250.816 57.9116C250.816 57.9116 275.097 45.3523 272.164 61.8272C269.231 78.302 283.079 74.2298 283.079 74.2298L287.645 76.3148L289.449 77.142L294.049 79.2515L304.427 84.0188C312.571 87.7728 311.896 98.3792 311.896 98.3792Z" fill="#BE6F72"/>
<path opacity="0.1" d="M262.69 71.3273C274.75 71.3273 284.526 61.5386 284.526 49.4637C284.526 37.3887 274.75 27.6 262.69 27.6C250.63 27.6 240.854 37.3887 240.854 49.4637C240.854 61.5386 250.63 71.3273 262.69 71.3273Z" fill="black"/>
<path opacity="0.1" d="M311.93 113.953H213.826C213.826 113.797 213.826 113.714 213.826 113.714L214.638 99.5196C214.638 99.5196 222.596 90.9836 229.567 85.2228L291.16 82.7755L294.024 79.7508L304.402 84.518C312.551 88.2672 311.896 98.8735 311.896 98.8735C311.896 98.8735 313.011 111.164 311.93 113.953Z" fill="black"/>
<path d="M311.93 113.464H213.826C213.826 113.307 213.826 113.224 213.826 113.224L214.638 99.0301C214.638 99.0301 222.596 90.4941 229.567 84.7333L291.16 82.2861L294.024 79.2613L304.402 84.0285C312.551 87.7777 311.896 98.3841 311.896 98.3841C311.896 98.3841 313.011 110.674 311.93 113.464Z" fill="#E7C7CA"/>
<path opacity="0.1" d="M246.964 73.662C246.964 73.662 262.441 93.4064 283.055 73.2558C303.669 53.1052 285.338 118.202 285.338 118.202L240.854 123.488L246.964 73.662Z" fill="black"/>
<path d="M246.964 74.6409C246.964 74.6409 262.441 94.3853 283.055 74.2347C303.669 54.0841 285.338 119.181 285.338 119.181L240.854 124.467L246.964 74.6409Z" fill="#E7C7CA"/>
<path opacity="0.1" d="M289.424 78.1062L291.062 103.112L292.817 111.433L294.156 117.796C294.156 117.796 297.578 166.74 296.601 169.188C295.623 171.635 297.089 173.593 297.295 174.895C297.5 176.197 297.089 179.466 297.251 180.934C297.412 182.403 297.251 183.054 293.506 182.53C289.762 182.006 284.541 181.096 284.541 181.096C284.541 181.096 271.342 182.075 266.782 180.445C262.221 178.815 253.583 178.81 253.583 178.81C253.583 178.81 240.546 179.138 236.313 178.649C232.079 178.159 229.792 183.871 227.025 182.236C224.258 180.602 230.28 164.783 232.236 160.211C234.191 155.64 229.63 144.059 229.63 144.059L235.496 111.477L236.801 104.091V80.8716L237.124 80.759C238.314 80.2944 239.376 79.5528 240.223 78.5957L241.69 101.962L287.64 103.597V77.2986" fill="black"/>
<path d="M289.424 77.1273L291.062 102.133L292.817 110.454L294.156 116.817C294.156 116.817 297.578 165.762 296.601 168.209C295.623 170.656 297.089 172.614 297.295 173.916C297.5 175.218 297.089 178.487 297.251 179.956C297.412 181.424 297.251 182.075 293.506 181.551C289.762 181.027 284.541 180.117 284.541 180.117C284.541 180.117 271.342 181.096 266.782 179.466C262.221 177.836 253.583 177.831 253.583 177.831C253.583 177.831 240.546 178.159 236.313 177.67C232.079 177.18 229.792 182.892 227.025 181.257C224.258 179.623 230.28 163.804 232.236 159.232C234.191 154.661 229.63 143.08 229.63 143.08L235.496 110.498L236.801 103.112V79.8927L237.124 79.7801C238.314 79.3155 239.376 78.5739 240.223 77.6168L241.69 100.983L287.64 102.618V76.3197" fill="#E7C7CA"/>
<path opacity="0.1" d="M294.709 24.9423C294.43 23.9193 294.044 22.8572 293.242 22.172C292.477 21.6216 291.593 21.2594 290.661 21.1148C288.432 20.5277 286.165 20.0928 283.876 19.8129C283.549 18.726 283.055 17.6972 282.41 16.7636C277.619 9.98963 270.531 3.60233 262.192 2.15845C257.826 1.39981 252.767 2.08014 249.971 5.52586C248.436 7.42002 247.776 9.9309 246.226 11.7908C243.239 15.4029 237.848 15.8483 234.084 18.6431C232.074 20.1114 230.618 22.2405 229.195 24.306C227.655 26.5428 226.072 28.8726 225.583 31.5449C224.605 36.8848 228.13 41.9751 228.78 47.3639C230.246 59.419 217.341 70.1135 219.78 82.0071C221.203 88.9426 227.602 93.8273 234.22 96.3039C236.552 97.18 239.216 98.0512 240.306 100.293C240.795 101.272 240.878 102.402 241.338 103.391C242.883 106.69 247.962 106.817 250.689 104.414C253.417 102.011 254.277 98.1246 254.6 94.4978C255.91 78.6593 249.575 63.0116 250.313 47.1339C250.533 42.3324 251.882 36.8848 256.179 34.7117C261.962 31.775 268.918 36.6695 275.283 35.7346C278.294 43.0721 278.934 51.1702 277.111 58.8904C276.099 63.1144 274.349 67.2111 274.222 71.5672C274.031 78.1992 277.605 84.2586 280.694 90.1222C281.357 91.2186 281.8 92.4339 281.999 93.7C282.048 94.9847 281.809 96.264 281.3 97.4443C279.555 102.148 276.544 106.514 276.202 111.521C276.101 112.105 276.233 112.706 276.568 113.195C276.913 113.521 277.357 113.721 277.829 113.763C283.109 114.668 287.675 109.984 290.251 105.28C293.123 100.085 294.797 94.3121 295.149 88.3846C295.682 78.4194 292.113 68.6158 292.333 58.6408C292.587 47.3003 297.705 35.8815 294.709 24.9423Z" fill="black"/>
<path d="M295.198 24.4528C294.919 23.4299 294.533 22.3678 293.731 21.6826C292.966 21.1322 292.081 20.77 291.15 20.6253C288.92 20.0383 286.654 19.6033 284.365 19.3234C284.038 18.2366 283.543 17.2077 282.899 16.2741C278.108 9.50018 271.02 3.11288 262.68 1.669C258.315 0.910358 253.256 1.59069 250.46 5.03641C248.925 6.93057 248.265 9.44145 246.715 11.3014C243.728 14.9135 238.336 15.3589 234.572 18.1536C232.563 19.622 231.107 21.7511 229.684 23.8165C228.144 26.0533 226.56 28.3831 226.072 31.0555C225.094 36.3954 228.618 41.4856 229.269 46.8745C230.735 58.9296 217.83 69.624 220.269 81.5176C221.692 88.4531 228.09 93.3378 234.709 95.8144C237.041 96.6905 239.705 97.5618 240.795 99.8034C241.284 100.782 241.367 101.913 241.827 102.902C243.371 106.201 248.45 106.328 251.178 103.925C253.906 101.521 254.766 97.6352 255.089 94.0084C256.399 78.1698 250.064 62.5221 250.802 46.6444C251.022 41.8429 252.371 36.3954 256.668 34.2222C262.451 31.2855 269.407 36.18 275.771 35.2452C278.783 42.5827 279.423 50.6808 277.6 58.401C276.588 62.6249 274.838 66.7216 274.711 71.0777C274.52 77.7097 278.093 83.7691 281.183 89.6327C281.846 90.7292 282.289 91.9444 282.488 93.2106C282.537 94.4952 282.298 95.7745 281.789 96.9548C280.044 101.658 277.033 106.024 276.69 111.031C276.59 111.616 276.722 112.216 277.057 112.705C277.401 113.032 277.846 113.232 278.318 113.273C283.598 114.179 288.163 109.495 290.74 104.791C293.612 99.5958 295.285 93.8226 295.638 87.8951C296.17 77.93 292.602 68.1263 292.822 58.1514C293.076 46.8108 298.194 35.392 295.198 24.4528Z" fill="#3E373A"/>
<path d="M284.399 241.166L303.791 241.788L301.01 227.388L286.154 228.803L284.399 241.166Z" fill="#C3C7D9"/>
<path d="M344.487 207.037C343.182 208.667 338.132 211.603 337.643 212.582C337.154 213.561 331.127 216.498 328.028 216.987C324.929 217.477 315.157 219.601 313.363 220.741C312.077 221.564 301.758 224.167 294.978 225.611C293.141 226.046 291.283 226.381 289.41 226.615C286.477 226.776 254.38 215.847 254.38 215.847L260.569 209.484L260.911 209.367C262.661 208.774 270.746 206.038 275.234 204.736C280.288 203.268 286.154 197.233 286.154 197.233C286.154 197.233 294.787 194.296 295.931 193.968C297.075 193.641 292.998 182.55 292.998 182.55C292.998 182.55 311.735 179.946 319.067 177.738C326.4 175.531 343.348 176.348 346.442 184.997C349.537 193.645 345.812 205.407 344.487 207.037Z" fill="#4B4B5B"/>
<path d="M259.102 234.607C259.102 234.607 255.358 238.523 251.608 238.2C247.859 237.877 234.748 239.179 234.748 239.179C232.372 240.128 230.148 241.419 228.144 243.011C225.079 245.429 223.451 243.501 223.148 243.09L223.095 243.011C221.462 248.155 217.717 244.235 217.717 244.235C217.717 244.235 219.345 228.572 218.847 226.615C218.348 224.657 222.068 221.294 222.068 221.294L226.467 220.174L237.613 217.315L253.583 222.861L259.102 234.607Z" fill="#E7C7CA"/>
<path opacity="0.1" d="M226.448 220.174L223.148 243.09L223.095 243.011C221.462 248.155 217.717 244.235 217.717 244.235C217.717 244.235 219.345 228.572 218.847 226.615C218.348 224.657 222.068 221.294 222.068 221.294L226.448 220.174Z" fill="black"/>
<path opacity="0.1" d="M249.511 154.989C249.511 154.989 258.144 157.925 265.643 154.989H249.511Z" fill="black"/>
<path opacity="0.1" d="M278.983 160.539C278.983 160.539 282.566 162.331 285.338 160.539H278.983Z" fill="black"/>
<path opacity="0.1" d="M278.983 164.788C278.983 164.788 285.01 165.595 286.154 163.965L278.983 164.788Z" fill="black"/>
<path opacity="0.1" d="M277.028 173.916C277.028 173.916 288.349 172.447 291.16 170.49L277.028 173.916Z" fill="black"/>
<path opacity="0.1" d="M242.482 170.49C242.482 170.49 248.837 174.077 253.564 173.916L242.482 170.49Z" fill="black"/>
<path opacity="0.1" d="M294.973 225.611C293.136 226.046 291.278 226.381 289.405 226.615C286.472 226.776 254.375 215.847 254.375 215.847L260.564 209.484L260.906 209.367C261.884 210.057 262.685 210.649 263.257 211.099C265.951 213.223 268.551 210.448 269.529 210.448C270.507 210.448 278.978 217.462 278.978 217.462C278.978 217.462 286.8 219.258 288.105 220.888C289.41 222.518 293.971 222.195 294.782 223.335C295.027 223.688 295.056 224.554 294.973 225.611Z" fill="black"/>
<path d="M234.748 183.215C234.748 183.215 226.839 183.67 222.278 181.747C217.717 179.823 202.563 175.384 198.164 178.502C193.764 181.62 183.171 184.375 188.06 196.778C192.948 209.181 195.231 209.504 195.231 209.504C196.743 210.639 198.064 212.011 199.142 213.566C200.608 215.852 214.296 221.069 217.717 221.069C221.139 221.069 227.167 221.069 235.638 226.943C244.11 232.816 251.77 233.472 251.77 233.472C251.77 233.472 262.524 237.877 265.872 238.856C269.221 239.835 284.522 244.073 288.11 242.771C291.698 241.469 293.976 233.305 293.976 233.305C293.976 233.305 295.603 225.964 294.787 224.823C293.971 223.683 289.41 224.006 288.11 222.376C286.809 220.746 278.983 218.95 278.983 218.95C278.983 218.95 270.531 211.931 269.553 211.931C268.576 211.931 265.975 214.702 263.282 212.582C257.916 208.603 252.279 205.005 246.412 201.814C240.223 198.55 234.748 183.215 234.748 183.215Z" fill="#4B4B5B"/>
<path opacity="0.1" d="M218.847 187.948C220.255 187.66 221.711 187.702 223.1 188.069C224.49 188.437 225.776 189.121 226.859 190.068C230.769 193.332 243.929 199.886 243.929 199.886" fill="black"/>
<path opacity="0.1" d="M316.623 187.743C316.623 187.743 299.187 190.386 295.931 193.973L316.623 187.743Z" fill="black"/>
<path d="M336.666 241.788H335.898C333.141 241.69 323.799 241.396 322 241.788C319.884 242.277 291.854 241.788 291.854 241.788L297.334 240.647C297.334 240.647 295.3 233.511 296.591 232.919C296.591 232.919 289.258 228.083 294.787 224.818C300.316 221.554 306.275 222.929 306.275 222.929L320.153 218.221L322.817 217.315C322.817 217.315 338.46 218.133 342.693 228.9C346.926 239.668 336.666 241.788 336.666 241.788Z" fill="#E7C7CA"/>
<path opacity="0.1" d="M336.666 241.788H335.898C340.449 238.029 350.744 226.585 320.153 218.245L322.817 217.34C322.817 217.34 338.46 218.157 342.693 228.925C346.926 239.693 336.666 241.788 336.666 241.788Z" fill="black"/>
<path d="M307.907 229.101C308.38 229.101 308.763 228.718 308.763 228.245C308.763 227.771 308.38 227.388 307.907 227.388C307.435 227.388 307.052 227.771 307.052 228.245C307.052 228.718 307.435 229.101 307.907 229.101Z" fill="#4B4B5B"/>
<path d="M302.936 230.516C303.408 230.516 303.791 230.132 303.791 229.659C303.791 229.186 303.408 228.803 302.936 228.803C302.463 228.803 302.08 229.186 302.08 229.659C302.08 230.132 302.463 230.516 302.936 230.516Z" fill="#4B4B5B"/>
<g opacity="0.1">
<path opacity="0.1" d="M278.714 48.6561C278.904 43.2725 277.947 37.9102 275.908 32.9252C269.553 33.8747 262.592 28.9655 256.805 31.9022C252.522 34.0754 251.178 39.5229 250.939 44.3244C250.88 45.5921 250.87 46.8598 250.895 48.1275C250.895 47.6772 250.895 47.222 250.939 46.7717C251.163 41.9702 252.508 36.5226 256.805 34.3495C262.592 31.4128 269.544 36.3073 275.908 35.3724C277.635 39.5949 278.586 44.0951 278.714 48.6561Z" fill="black"/>
<path opacity="0.1" d="M229.469 47.7604C229.553 46.6939 229.531 45.6217 229.405 44.5594C228.887 40.2523 226.536 36.136 226.111 31.9365C225.563 37.0023 228.785 41.8674 229.405 47.0066C229.469 47.2709 229.469 47.5059 229.469 47.7604Z" fill="black"/>
<path opacity="0.1" d="M255.226 91.6835C254.923 95.3152 254.067 99.1965 251.315 101.605C248.563 104.013 243.494 103.881 241.964 100.582C241.475 99.6028 241.401 98.4624 240.927 97.4835C239.842 95.2418 237.173 94.3706 234.841 93.4945C228.218 91.0129 221.828 86.1527 220.406 79.1977C220.279 78.5676 220.192 77.93 220.147 77.2888C220.027 78.7458 220.114 80.2125 220.406 81.6449C221.828 88.5804 228.227 93.4602 234.841 95.9417C237.173 96.8178 239.842 97.689 240.927 99.9307C241.416 100.91 241.499 102.04 241.964 103.029C243.503 106.328 248.582 106.455 251.315 104.052C254.048 101.649 254.898 97.7624 255.226 94.1307C255.375 92.2192 255.425 90.3013 255.377 88.3846C255.377 89.4957 255.314 90.592 255.226 91.6835Z" fill="black"/>
<path opacity="0.1" d="M292.983 55.8314C292.983 56.5411 292.983 57.2459 292.983 57.9507C293.257 48.847 296.591 39.6943 296.263 30.7814C296.009 39.0237 293.169 47.452 292.983 55.8314Z" fill="black"/>
<path opacity="0.1" d="M282.493 92.6575C282.613 92.0767 282.651 91.4819 282.605 90.8906C282.408 89.6239 281.965 88.4083 281.3 87.3127C278.475 81.9288 275.253 76.4176 274.872 70.4414C274.872 70.6959 274.838 70.9309 274.833 71.205C274.637 77.8321 278.211 83.8964 281.3 89.76C281.825 90.6681 282.226 91.6426 282.493 92.6575Z" fill="black"/>
<path opacity="0.1" d="M295.794 85.5752C295.429 91.505 293.744 97.2779 290.862 102.471C288.281 107.175 283.72 111.859 278.436 110.953C277.962 110.912 277.517 110.71 277.174 110.38C277.075 110.268 276.997 110.139 276.945 109.999C276.886 110.38 276.837 110.767 276.808 111.159C276.707 111.742 276.838 112.341 277.174 112.828C277.517 113.157 277.962 113.359 278.436 113.4C283.72 114.306 288.281 109.622 290.862 104.918C293.744 99.7251 295.429 93.9522 295.794 88.0224C295.853 86.8771 295.858 85.7367 295.823 84.5963C295.814 84.9242 295.814 85.2472 295.794 85.5752Z" fill="black"/>
</g>
<path opacity="0.1" d="M296.591 232.919C296.591 232.919 308.963 238.117 317.122 226.615" stroke="black" stroke-miterlimit="10"/>
<path opacity="0.1" d="M299.025 242.003C299.025 242.003 309.129 235.425 322 241.788" stroke="black" stroke-miterlimit="10"/>
<path opacity="0.1" d="M231.39 240.51C231.39 240.51 235.633 230.927 246.964 238.234" stroke="black" stroke-miterlimit="10"/>
<path opacity="0.1" d="M217.634 98.7854L226.287 90.9542C226.287 90.9542 259.835 88.7517 261.224 100.171C261.224 100.171 273.117 86.6324 298.131 89.6474L308.714 98.0855L279.462 110.938L251.036 120.811L230.1 111.428L217.634 98.7854Z" fill="black"/>
<path d="M217.634 99.2749L226.287 91.4437C226.287 91.4437 259.835 89.2412 261.224 100.66C261.224 100.66 273.117 87.1219 298.131 90.1369L308.714 98.575L279.462 111.428L251.036 121.3L230.1 111.917L217.634 99.2749Z" fill="#D5D6DB"/>
<path opacity="0.1" d="M213.807 100.254L217.634 146.1L258.208 148.141L256.448 102.491L256.413 101.722L213.807 100.254Z" fill="black"/>
<path d="M213.807 99.2749L217.634 145.121L258.208 147.163L256.448 101.512L256.413 100.743L213.807 99.2749Z" fill="#F5F5F5"/>
<path opacity="0.1" d="M310.572 99.2749L268.717 105.559V151.612L309.618 145.694L310.572 99.2749Z" fill="black"/>
<path d="M310.572 98.296L268.717 104.58V150.633L309.618 144.715L310.572 98.296Z" fill="#F5F5F5"/>
<path opacity="0.3" d="M300.702 109.534L278.093 112.049L278.587 119.763L300.687 117.345L300.702 109.534Z" fill="white"/>
<path d="M219.834 169.672L222.136 175.874C222.136 175.874 225.558 178.81 229.303 177.342C233.047 175.874 236.313 175.144 237.94 173.715C239.568 172.286 241.851 165.106 241.851 165.106C241.851 165.106 244.134 157.274 246.412 155.317C248.69 153.359 254.722 126.385 246.412 129.024C238.102 131.662 231.747 156.134 231.747 156.134C231.747 156.134 230.28 157.925 228.164 158.092C226.047 158.258 221.809 157.764 220.992 159.56C220.176 161.356 217.39 166.085 219.834 169.672Z" fill="#BE6F72"/>
<path opacity="0.1" d="M268.717 105.554C266.575 106.038 264.348 106.013 262.217 105.481C260.086 104.949 258.108 103.925 256.443 102.491L258.207 148.136C258.207 148.136 262.363 152.639 268.717 151.612V105.554Z" fill="black"/>
<path d="M268.717 104.576C266.575 105.059 264.348 105.034 262.217 104.502C260.086 103.97 258.108 102.946 256.443 101.512L258.207 147.158C258.207 147.158 262.363 151.661 268.717 150.633V104.576Z" fill="#F5F5F5"/>
<path opacity="0.1" d="M268.717 104.576C266.575 105.059 264.348 105.034 262.217 104.502C260.086 103.97 258.108 102.946 256.443 101.512L258.207 147.158C258.207 147.158 262.363 151.661 268.717 150.633V104.576Z" fill="black"/>
<path opacity="0.1" d="M269.695 99.4315C269.695 99.4315 286.721 94.2189 291.16 94.953L269.695 99.4315Z" fill="black"/>
<path opacity="0.1" d="M250.65 97.1555C250.65 97.1555 234.147 93.24 231.39 94.351L250.65 97.1555Z" fill="black"/>
<path opacity="0.1" d="M280.43 100.082C280.43 100.082 291.815 95.9026 295.931 97.8897L280.43 100.082Z" fill="black"/>
<path opacity="0.1" d="M274.696 204.937C276.46 203.61 278.338 202.443 280.308 201.447C283.241 200.033 288.618 196.362 288.618 196.362" fill="black"/>
<path opacity="0.1" d="M231.39 154.989C231.39 154.989 224.248 160.838 222.102 161.352C219.956 161.866 218.631 166.427 218.631 166.427" fill="black"/>
<path d="M306.372 168.801L304.094 175.017C304.094 175.017 300.673 177.954 296.923 176.485C293.174 175.017 289.918 174.288 288.286 172.859C286.653 171.429 284.375 164.249 284.375 164.249C284.375 164.249 282.097 156.418 279.814 154.46C277.531 152.502 271.504 125.529 279.814 128.167C288.124 130.805 294.479 155.278 294.479 155.278C294.479 155.278 295.946 157.069 298.062 157.235C300.179 157.402 304.417 156.907 305.233 158.704C306.05 160.5 308.817 165.228 306.372 168.801Z" fill="#BE6F72"/>
<path opacity="0.1" d="M302.379 157.367C302.379 157.367 307.047 160.373 307.027 163.965L302.379 157.367Z" fill="black"/>
<path d="M262.768 70.2554C274.828 70.2554 284.605 60.4667 284.605 48.3918C284.605 36.3168 274.828 26.5281 262.768 26.5281C250.709 26.5281 240.932 36.3168 240.932 48.3918C240.932 60.4667 250.709 70.2554 262.768 70.2554Z" fill="#BE6F72"/>
<path d="M249.057 42.5233C251.706 42.1073 254.028 40.5655 256.56 39.6796C262.226 37.6875 268.493 39.0531 274.227 40.8494C276.426 41.5395 278.66 42.3177 280.968 42.3177C283.275 42.3177 285.724 41.3731 286.902 39.381C287.987 37.5505 287.777 35.1718 286.863 33.2482C285.949 31.3247 284.419 29.7781 282.874 28.3195C277.79 23.5131 271.484 19.02 264.509 19.5094C261.703 19.7101 259.019 20.7135 256.438 21.8245C253.188 23.2268 250.024 24.822 246.964 26.6015C244.613 27.9671 240.257 29.7927 238.903 32.2889C235.824 37.9127 244.266 43.2771 249.057 42.5233Z" fill="#3E373A"/>
<path opacity="0.1" d="M286.902 37.3254C285.724 39.3174 283.275 40.2621 280.968 40.2621C278.66 40.2621 276.426 39.5132 274.222 38.8231C268.488 37.0268 262.226 35.6563 256.555 37.6533C254.028 38.5392 251.701 40.1005 249.052 40.4921C245.19 41.099 238.972 37.7316 238.297 33.4489C237.54 38.3973 244.75 42.6359 249.052 41.9604C251.701 41.5444 254.028 40.0026 256.555 39.1216C262.226 37.1247 268.488 38.4951 274.222 40.2914C276.426 40.9815 278.655 41.7598 280.968 41.7304C283.28 41.701 285.724 40.7907 286.902 38.7937C287.513 37.7073 287.753 36.4512 287.586 35.2158C287.51 35.9596 287.277 36.6787 286.902 37.3254Z" fill="black"/>
<path d="M464.11 302.582C464.11 302.582 467.009 306.375 462.77 312.107C458.532 317.838 455.042 322.674 456.45 326.247C456.45 326.247 462.844 315.606 468.045 315.455C473.246 315.303 469.824 308.979 464.11 302.582Z" fill="#F5F5F5"/>
<path opacity="0.1" d="M464.11 302.582C464.362 302.948 464.561 303.349 464.701 303.771C469.775 309.743 472.483 315.317 467.6 315.455C463.054 315.587 457.603 323.726 456.298 325.777C456.34 325.943 456.39 326.106 456.45 326.266C456.45 326.266 462.844 315.626 468.045 315.474C473.246 315.322 469.824 308.979 464.11 302.582Z" fill="black"/>
<path d="M469.487 307.418C469.487 308.754 469.335 309.836 469.154 309.836C468.974 309.836 468.817 308.754 468.817 307.418C468.817 306.082 469.003 306.713 469.189 306.713C469.374 306.713 469.487 306.082 469.487 307.418Z" fill="#FFD037"/>
<path d="M471.34 309.013C470.171 309.65 469.15 310.036 469.062 309.875C468.974 309.713 469.849 309.062 471.017 308.406C472.185 307.751 471.726 308.23 471.814 308.406C471.902 308.583 472.513 308.372 471.34 309.013Z" fill="#FFD037"/>
<path d="M448.79 302.582C448.79 302.582 445.891 306.375 450.129 312.107C454.367 317.838 457.858 322.674 456.445 326.247C456.445 326.247 450.056 315.606 444.85 315.455C439.644 315.303 443.09 308.979 448.79 302.582Z" fill="#F5F5F5"/>
<path opacity="0.1" d="M448.79 302.582C448.537 302.948 448.338 303.349 448.198 303.771C443.124 309.743 440.416 315.317 445.299 315.455C449.841 315.587 455.296 323.726 456.601 325.777C456.56 325.943 456.508 326.107 456.445 326.266C456.445 326.266 450.056 315.626 444.85 315.474C439.644 315.322 443.09 308.979 448.79 302.582Z" fill="black"/>
<path d="M443.403 307.418C443.403 308.754 443.549 309.836 443.735 309.836C443.921 309.836 444.072 308.754 444.072 307.418C444.072 306.082 443.882 306.713 443.701 306.713C443.52 306.713 443.403 306.082 443.403 307.418Z" fill="#FFD037"/>
<path d="M441.555 309.013C442.723 309.65 443.745 310.036 443.833 309.875C443.921 309.713 443.046 309.062 441.877 308.406C440.709 307.751 441.169 308.23 441.081 308.406C440.993 308.583 440.382 308.372 441.555 309.013Z" fill="#FFD037"/>
<path opacity="0.1" d="M456.45 355.281C473.188 355.281 486.757 353.197 486.757 350.626C486.757 348.056 473.188 345.972 456.45 345.972C439.711 345.972 426.142 348.056 426.142 350.626C426.142 353.197 439.711 355.281 456.45 355.281Z" fill="#F5F5F5"/>
<path d="M472.048 321.132L471.902 322.317L471.696 323.99L471.613 324.69L471.408 326.364L471.32 327.064L471.12 328.733L468.798 347.773C468.592 349.471 465.821 350.798 462.472 350.798H450.422C447.074 350.798 444.307 349.471 444.097 347.773L441.775 328.733L441.57 327.064L441.486 326.364L441.281 324.69L441.193 323.99L440.993 322.317L440.846 321.132C440.734 320.153 442.229 319.36 444.126 319.36H468.773C470.665 319.36 472.166 320.168 472.048 321.132Z" fill="#65617D"/>
<path d="M471.902 322.317L471.701 323.991H441.198L440.993 322.317H471.902Z" fill="#9D9CB5"/>
<path d="M471.613 324.69L471.413 326.364H441.486L441.281 324.69H471.613Z" fill="#9D9CB5"/>
<path d="M471.325 327.064L471.12 328.738H441.775L441.574 327.064H471.325Z" fill="#9D9CB5"/>
</g>
<defs>
<linearGradient id="paint0_linear" x1="267.217" y1="245.664" x2="267.217" y2="-1.15195e-06" gradientUnits="userSpaceOnUse">
<stop stop-color="#808080" stop-opacity="0.25"/>
<stop offset="0.54" stop-color="#808080" stop-opacity="0.12"/>
<stop offset="1" stop-color="#808080" stop-opacity="0.1"/>
</linearGradient>
<clipPath id="clip0">
<rect width="500" height="398" fill="white"/>
</clipPath>
</defs>
</svg>
