<?xml version="1.0" encoding="UTF-8"?>
<svg xmlns="http://www.w3.org/2000/svg" xmlns:xlink="http://www.w3.org/1999/xlink" width="948" height="758" viewBox="0 0 948 758" version="1.1">
<defs>
<filter id="alpha" filterUnits="objectBoundingBox" x="0%" y="0%" width="100%" height="100%">
  <feColorMatrix type="matrix" in="SourceGraphic" values="0 0 0 0 1 0 0 0 0 1 0 0 0 0 1 0 0 0 1 0"/>
</filter>
<mask id="mask0">
  <g filter="url(#alpha)">
<rect x="0" y="0" width="948" height="758" style="fill:rgb(0%,0%,0%);fill-opacity:0.101961;stroke:none;"/>
  </g>
</mask>
<clipPath id="clip1">
  <rect width="948" height="758"/>
</clipPath>
<g id="surface6" clip-path="url(#clip1)">
<path style=" stroke:none;fill-rule:nonzero;fill:rgb(0%,0%,0%);fill-opacity:1;" d="M 904.5 702.714844 C 904.5 746.070312 715.3125 826.714844 477 826.714844 C 238.6875 826.714844 42.5 751.070312 42.5 707.714844 C 42.5 664.359375 238.6875 669.714844 477 669.714844 C 715.3125 669.714844 904.5 659.359375 904.5 702.714844 Z M 904.5 702.714844 "/>
</g>
<mask id="mask1">
  <g filter="url(#alpha)">
<rect x="0" y="0" width="948" height="758" style="fill:rgb(0%,0%,0%);fill-opacity:0.101961;stroke:none;"/>
  </g>
</mask>
<clipPath id="clip2">
  <rect width="948" height="758"/>
</clipPath>
<g id="surface9" clip-path="url(#clip2)">
<path style=" stroke:none;fill-rule:nonzero;fill:rgb(0%,0%,0%);fill-opacity:1;" d="M 637.359375 440.238281 L 637.359375 650.183594 L 672.476562 707.414062 L 674.632812 440.238281 Z M 637.359375 440.238281 "/>
</g>
<mask id="mask2">
  <g filter="url(#alpha)">
<rect x="0" y="0" width="948" height="758" style="fill:rgb(0%,0%,0%);fill-opacity:0.101961;stroke:none;"/>
  </g>
</mask>
<clipPath id="clip3">
  <rect width="948" height="758"/>
</clipPath>
<g id="surface12" clip-path="url(#clip3)">
<path style=" stroke:none;fill-rule:nonzero;fill:rgb(0%,0%,0%);fill-opacity:1;" d="M 302.847656 434.640625 L 302.847656 644.582031 L 267.730469 701.8125 L 265.574219 434.640625 Z M 302.847656 434.640625 "/>
</g>
<mask id="mask3">
  <g filter="url(#alpha)">
<rect x="0" y="0" width="948" height="758" style="fill:rgb(0%,0%,0%);fill-opacity:0.101961;stroke:none;"/>
  </g>
</mask>
<clipPath id="clip4">
  <rect width="948" height="758"/>
</clipPath>
<g id="surface15" clip-path="url(#clip4)">
<path style=" stroke:none;fill-rule:nonzero;fill:rgb(0%,0%,0%);fill-opacity:1;" d="M 858.5 430.441406 L 858.5 443.035156 L 105.5 443.035156 L 105.5 424.84375 Z M 858.5 430.441406 "/>
</g>
<mask id="mask4">
  <g filter="url(#alpha)">
<rect x="0" y="0" width="948" height="758" style="fill:rgb(0%,0%,0%);fill-opacity:0.101961;stroke:none;"/>
  </g>
</mask>
<clipPath id="clip5">
  <rect width="948" height="758"/>
</clipPath>
<g id="surface18" clip-path="url(#clip5)">
<path style=" stroke:none;fill-rule:nonzero;fill:rgb(0%,0%,0%);fill-opacity:1;" d="M 213.269531 493.425781 L 179.679688 493.425781 L 165.683594 483.625 L 228.667969 483.625 Z M 213.269531 493.425781 "/>
</g>
<mask id="mask5">
  <g filter="url(#alpha)">
<rect x="0" y="0" width="948" height="758" style="fill:rgb(0%,0%,0%);fill-opacity:0.101961;stroke:none;"/>
  </g>
</mask>
<clipPath id="clip6">
  <rect width="948" height="758"/>
</clipPath>
<g id="surface21" clip-path="url(#clip6)">
<path style=" stroke:none;fill-rule:nonzero;fill:rgb(0%,0%,0%);fill-opacity:1;" d="M 213.269531 534.011719 L 179.679688 534.011719 L 165.683594 524.214844 L 228.667969 524.214844 Z M 213.269531 534.011719 "/>
</g>
<mask id="mask6">
  <g filter="url(#alpha)">
<rect x="0" y="0" width="948" height="758" style="fill:rgb(0%,0%,0%);fill-opacity:0.101961;stroke:none;"/>
  </g>
</mask>
<clipPath id="clip7">
  <rect width="948" height="758"/>
</clipPath>
<g id="surface24" clip-path="url(#clip7)">
<path style=" stroke:none;fill-rule:nonzero;fill:rgb(0%,0%,0%);fill-opacity:1;" d="M 213.269531 591.398438 L 179.679688 591.398438 L 165.683594 581.601562 L 228.667969 581.601562 Z M 213.269531 591.398438 "/>
</g>
<mask id="mask7">
  <g filter="url(#alpha)">
<rect x="0" y="0" width="948" height="758" style="fill:rgb(0%,0%,0%);fill-opacity:0.101961;stroke:none;"/>
  </g>
</mask>
<clipPath id="clip8">
  <rect width="948" height="758"/>
</clipPath>
<g id="surface27" clip-path="url(#clip8)">
<path style=" stroke:none;fill-rule:nonzero;fill:rgb(0%,0%,0%);fill-opacity:1;" d="M 213.269531 648.78125 L 179.679688 648.78125 L 165.683594 638.984375 L 228.667969 638.984375 Z M 213.269531 648.78125 "/>
</g>
<mask id="mask8">
  <g filter="url(#alpha)">
<rect x="0" y="0" width="948" height="758" style="fill:rgb(0%,0%,0%);fill-opacity:0.101961;stroke:none;"/>
  </g>
</mask>
<clipPath id="clip9">
  <rect width="948" height="758"/>
</clipPath>
<g id="surface30" clip-path="url(#clip9)">
<path style=" stroke:none;fill-rule:nonzero;fill:rgb(0%,0%,0%);fill-opacity:1;" d="M 726.933594 499.023438 L 760.527344 499.023438 L 774.523438 489.226562 L 711.539062 489.226562 Z M 726.933594 499.023438 "/>
</g>
<mask id="mask9">
  <g filter="url(#alpha)">
<rect x="0" y="0" width="948" height="758" style="fill:rgb(0%,0%,0%);fill-opacity:0.101961;stroke:none;"/>
  </g>
</mask>
<clipPath id="clip10">
  <rect width="948" height="758"/>
</clipPath>
<g id="surface33" clip-path="url(#clip10)">
<path style=" stroke:none;fill-rule:nonzero;fill:rgb(0%,0%,0%);fill-opacity:1;" d="M 726.933594 539.609375 L 760.527344 539.609375 L 774.523438 529.8125 L 711.539062 529.8125 Z M 726.933594 539.609375 "/>
</g>
<mask id="mask10">
  <g filter="url(#alpha)">
<rect x="0" y="0" width="948" height="758" style="fill:rgb(0%,0%,0%);fill-opacity:0.101961;stroke:none;"/>
  </g>
</mask>
<clipPath id="clip11">
  <rect width="948" height="758"/>
</clipPath>
<g id="surface36" clip-path="url(#clip11)">
<path style=" stroke:none;fill-rule:nonzero;fill:rgb(0%,0%,0%);fill-opacity:1;" d="M 726.933594 596.996094 L 760.527344 596.996094 L 774.523438 587.199219 L 711.539062 587.199219 Z M 726.933594 596.996094 "/>
</g>
<mask id="mask11">
  <g filter="url(#alpha)">
<rect x="0" y="0" width="948" height="758" style="fill:rgb(0%,0%,0%);fill-opacity:0.101961;stroke:none;"/>
  </g>
</mask>
<clipPath id="clip12">
  <rect width="948" height="758"/>
</clipPath>
<g id="surface39" clip-path="url(#clip12)">
<path style=" stroke:none;fill-rule:nonzero;fill:rgb(0%,0%,0%);fill-opacity:1;" d="M 726.933594 654.382812 L 760.527344 654.382812 L 774.523438 644.582031 L 711.539062 644.582031 Z M 726.933594 654.382812 "/>
</g>
<mask id="mask12">
  <g filter="url(#alpha)">
<rect x="0" y="0" width="948" height="758" style="fill:rgb(0%,0%,0%);fill-opacity:0.101961;stroke:none;"/>
  </g>
</mask>
<clipPath id="clip13">
  <rect width="948" height="758"/>
</clipPath>
<g id="surface42" clip-path="url(#clip13)">
<path style=" stroke:none;fill-rule:nonzero;fill:rgb(0%,0%,0%);fill-opacity:1;" d="M 560.273438 395.480469 C 563.410156 392.941406 566.785156 390.710938 570.347656 388.8125 L 575.015625 359.003906 L 642.53125 359.066406 L 647.199219 388.453125 C 651.035156 390.433594 654.652344 392.8125 657.988281 395.550781 C 660.988281 394.867188 664.261719 392.324219 647.199219 382.875 L 642.53125 351.632812 L 575.015625 353.425781 L 570.347656 383.234375 C 570.347656 383.234375 551.035156 393.496094 560.273438 395.480469 Z M 560.273438 395.480469 "/>
</g>
<mask id="mask13">
  <g filter="url(#alpha)">
<rect x="0" y="0" width="948" height="758" style="fill:rgb(0%,0%,0%);fill-opacity:0.101961;stroke:none;"/>
  </g>
</mask>
<clipPath id="clip14">
  <rect width="948" height="758"/>
</clipPath>
<g id="surface45" clip-path="url(#clip14)">
<path style=" stroke:none;fill-rule:nonzero;fill:rgb(0%,0%,0%);fill-opacity:1;" d="M 672.136719 411.679688 C 658.949219 416.734375 647.195312 417.109375 635.128906 408.730469 C 629.046875 404.507812 623.519531 403.464844 619.371094 403.542969 C 623.902344 401.144531 638.921875 395.234375 665.550781 403.792969 C 667.511719 404.410156 669.265625 405.558594 670.613281 407.109375 C 671.824219 408.300781 672.390625 410 672.136719 411.679688 Z M 672.136719 411.679688 "/>
</g>
<mask id="mask14">
  <g filter="url(#alpha)">
<rect x="0" y="0" width="948" height="758" style="fill:rgb(0%,0%,0%);fill-opacity:0.101961;stroke:none;"/>
  </g>
</mask>
<clipPath id="clip15">
  <rect width="948" height="758"/>
</clipPath>
<g id="surface48" clip-path="url(#clip15)">
<path style=" stroke:none;fill-rule:nonzero;fill:rgb(0%,0%,0%);fill-opacity:1;" d="M 597.78125 415.195312 L 597.78125 418.789062 L 404.570312 418.789062 L 404.570312 415.914062 L 404.835938 415.195312 Z M 597.78125 415.195312 "/>
</g>
<mask id="mask15">
  <g filter="url(#alpha)">
<rect x="0" y="0" width="948" height="758" style="fill:rgb(0%,0%,0%);fill-opacity:0.101961;stroke:none;"/>
  </g>
</mask>
<clipPath id="clip16">
  <rect width="948" height="758"/>
</clipPath>
<g id="surface51" clip-path="url(#clip16)">
<path style=" stroke:none;fill-rule:nonzero;fill:rgb(0%,0%,0%);fill-opacity:1;" d="M 332.96875 301.332031 L 337.496094 276.671875 C 337.496094 276.671875 311.328125 390.40625 314.347656 403.492188 C 317.367188 416.574219 339.507812 436.707031 342.527344 437.710938 C 345.546875 438.71875 373.730469 351.152344 373.730469 351.152344 Z M 332.96875 301.332031 "/>
</g>
<mask id="mask16">
  <g filter="url(#alpha)">
<rect x="0" y="0" width="948" height="758" style="fill:rgb(0%,0%,0%);fill-opacity:0.101961;stroke:none;"/>
  </g>
</mask>
<clipPath id="clip17">
  <rect width="948" height="758"/>
</clipPath>
<g id="surface54" clip-path="url(#clip17)">
<path style=" stroke:none;fill-rule:nonzero;fill:rgb(0%,0%,0%);fill-opacity:1;" d="M 538.292969 307.371094 L 546.847656 290.765625 C 546.847656 290.765625 558.925781 404.496094 550.871094 415.570312 C 542.820312 426.640625 510.96875 430.785156 510.96875 430.785156 L 510.613281 348.132812 Z M 538.292969 307.371094 "/>
</g>
</defs>
<g id="surface1">
<path style=" stroke:none;fill-rule:nonzero;fill:rgb(94.901961%,94.901961%,94.901961%);fill-opacity:1;" d="M 782.585938 309.386719 C 737.667969 132.765625 582.46875 5.269531 400.296875 0.15625 C 303.988281 -2.546875 202.644531 29.394531 128.859375 141.167969 C -3.042969 340.976562 136.964844 479.050781 234.570312 544.660156 C 281.730469 576.421875 324.21875 614.613281 360.8125 658.125 C 426.746094 736.363281 553.582031 833.582031 704.636719 681.253906 C 814.121094 570.84375 812.503906 427.035156 782.585938 309.386719 Z M 782.585938 309.386719 "/>
<path style=" stroke:none;fill-rule:nonzero;fill:rgb(24.705882%,23.921569%,33.72549%);fill-opacity:1;" d="M 904.5 702.714844 C 904.5 746.070312 715.3125 826.714844 477 826.714844 C 238.6875 826.714844 42.5 751.070312 42.5 707.714844 C 42.5 664.359375 238.6875 669.714844 477 669.714844 C 715.3125 669.714844 904.5 659.359375 904.5 702.714844 Z M 904.5 702.714844 "/>
<use xlink:href="#surface6" mask="url(#mask0)"/>
<path style=" stroke:none;fill-rule:nonzero;fill:rgb(24.705882%,23.921569%,33.72549%);fill-opacity:1;" d="M 905.5 707.214844 C 905.5 663.859375 712.3125 628.714844 474 628.714844 C 235.6875 628.714844 42.5 663.859375 42.5 707.214844 C 42.5 750.570312 235.6875 785.714844 474 785.714844 C 712.3125 785.714844 905.5 750.570312 905.5 707.214844 Z M 905.5 707.214844 "/>
<path style=" stroke:none;fill-rule:nonzero;fill:rgb(18.431373%,18.039216%,25.490196%);fill-opacity:1;" d="M 637.359375 440.238281 L 637.359375 650.183594 L 672.476562 707.414062 L 675.148438 711.765625 L 813.710938 711.765625 L 816.511719 440.238281 Z M 637.359375 440.238281 "/>
<use xlink:href="#surface9" mask="url(#mask1)"/>
<path style=" stroke:none;fill-rule:nonzero;fill:rgb(18.431373%,18.039216%,25.490196%);fill-opacity:1;" d="M 302.847656 434.640625 L 302.847656 644.582031 L 267.730469 701.8125 L 265.058594 706.167969 L 126.492188 706.167969 L 123.695312 434.640625 Z M 302.847656 434.640625 "/>
<use xlink:href="#surface12" mask="url(#mask2)"/>
<path style=" stroke:none;fill-rule:nonzero;fill:rgb(18.431373%,18.039216%,25.490196%);fill-opacity:1;" d="M 858.5 430.441406 L 858.5 443.035156 L 105.5 443.035156 L 105.5 424.84375 L 175.480469 388.453125 L 796.914062 388.453125 Z M 858.5 430.441406 "/>
<use xlink:href="#surface15" mask="url(#mask3)"/>
<use xlink:href="#surface18" mask="url(#mask4)"/>
<use xlink:href="#surface21" mask="url(#mask5)"/>
<use xlink:href="#surface24" mask="url(#mask6)"/>
<use xlink:href="#surface27" mask="url(#mask7)"/>
<use xlink:href="#surface30" mask="url(#mask8)"/>
<use xlink:href="#surface33" mask="url(#mask9)"/>
<use xlink:href="#surface36" mask="url(#mask10)"/>
<use xlink:href="#surface39" mask="url(#mask11)"/>
<path style=" stroke:none;fill-rule:nonzero;fill:rgb(24.705882%,23.921569%,33.72549%);fill-opacity:1;" d="M 575.015625 353.425781 L 570.347656 383.234375 C 570.347656 383.234375 547.363281 395.445312 563.523438 395.804688 C 579.683594 396.164062 655.820312 395.804688 655.820312 395.804688 C 655.820312 395.804688 670.542969 395.804688 647.199219 382.875 L 642.53125 351.632812 Z M 575.015625 353.425781 "/>
<use xlink:href="#surface42" mask="url(#mask12)"/>
<path style=" stroke:none;fill-rule:nonzero;fill:rgb(24.705882%,23.921569%,33.72549%);fill-opacity:1;" d="M 467.019531 145.671875 L 749.808594 145.671875 C 755.714844 145.671875 760.503906 150.460938 760.503906 156.367188 L 760.503906 346.863281 C 760.503906 352.769531 755.714844 357.554688 749.808594 357.554688 L 467.019531 357.554688 C 461.113281 357.554688 456.324219 352.769531 456.324219 346.863281 L 456.324219 156.367188 C 456.324219 150.460938 461.113281 145.671875 467.019531 145.671875 Z M 467.019531 145.671875 "/>
<path style=" stroke:none;fill-rule:nonzero;fill:rgb(94.901961%,94.901961%,94.901961%);fill-opacity:1;" d="M 466.558594 156.984375 L 750.269531 156.984375 L 750.269531 315.71875 L 466.558594 315.71875 Z M 466.558594 156.984375 "/>
<path style=" stroke:none;fill-rule:nonzero;fill:rgb(94.901961%,94.901961%,94.901961%);fill-opacity:1;" d="M 610.210938 151.957031 C 610.210938 152.949219 609.40625 153.753906 608.414062 153.753906 C 607.421875 153.753906 606.617188 152.949219 606.617188 151.957031 C 606.617188 150.964844 607.421875 150.160156 608.414062 150.160156 C 609.40625 150.160156 610.210938 150.964844 610.210938 151.957031 Z M 610.210938 151.957031 "/>
<path style=" stroke:none;fill-rule:nonzero;fill:rgb(24.705882%,23.921569%,33.72549%);fill-opacity:1;" d="M 760.503906 328.289062 L 760.503906 346.863281 C 760.503906 352.769531 755.714844 357.558594 749.808594 357.554688 L 467.019531 357.554688 C 461.113281 357.558594 456.324219 352.769531 456.324219 346.863281 L 456.324219 328.289062 Z M 760.503906 328.289062 "/>
<path style=" stroke:none;fill-rule:nonzero;fill:rgb(94.901961%,94.901961%,94.901961%);fill-opacity:1;" d="M 615.238281 343.011719 C 615.238281 346.78125 612.183594 349.835938 608.414062 349.835938 C 604.644531 349.835938 601.589844 346.78125 601.589844 343.011719 C 601.589844 339.242188 604.644531 336.1875 608.414062 336.1875 C 612.183594 336.1875 615.238281 339.242188 615.238281 343.011719 Z M 615.238281 343.011719 "/>
<path style=" stroke:none;fill-rule:nonzero;fill:rgb(24.705882%,23.921569%,33.72549%);fill-opacity:1;" d="M 597.78125 415.195312 L 597.78125 418.789062 L 404.570312 418.789062 L 404.570312 415.914062 L 404.835938 415.195312 L 409.597656 402.269531 L 593.832031 402.269531 Z M 597.78125 415.195312 "/>
<path style=" stroke:none;fill-rule:nonzero;fill:rgb(24.705882%,23.921569%,33.72549%);fill-opacity:1;" d="M 672.136719 411.679688 C 671.78125 413.183594 670.453125 414.773438 667.453125 416.273438 C 656.679688 421.660156 634.773438 414.835938 634.773438 414.835938 C 634.773438 414.835938 617.890625 411.964844 617.890625 404.421875 C 618.367188 404.097656 618.859375 403.804688 619.371094 403.542969 C 623.902344 401.144531 638.921875 395.234375 665.550781 403.792969 C 667.511719 404.410156 669.265625 405.558594 670.613281 407.109375 C 671.824219 408.300781 672.390625 410 672.136719 411.679688 Z M 672.136719 411.679688 "/>
<use xlink:href="#surface45" mask="url(#mask13)"/>
<path style=" stroke:none;fill-rule:nonzero;fill:rgb(94.901961%,94.901961%,94.901961%);fill-opacity:1;" d="M 660.269531 407.296875 C 660.269531 406.503906 658.179688 405.859375 655.601562 405.859375 C 653.023438 405.859375 650.933594 406.503906 650.933594 407.296875 C 650.933594 408.089844 653.023438 408.730469 655.601562 408.730469 C 658.179688 408.730469 660.269531 408.089844 660.269531 407.296875 Z M 660.269531 407.296875 "/>
<use xlink:href="#surface48" mask="url(#mask14)"/>
<path style=" stroke:none;fill-rule:nonzero;fill:rgb(98.431373%,31.372549%,23.137255%);fill-opacity:1;" d="M 708.195312 231.953125 C 706.667969 230.425781 687.105469 205.78125 683.804688 201.71875 C 680.246094 197.652344 678.722656 198.414062 676.4375 198.667969 C 674.148438 198.921875 649.503906 203.242188 646.710938 203.496094 C 643.914062 204.003906 642.136719 205.019531 643.914062 207.5625 C 645.441406 209.847656 661.699219 232.714844 665.257812 238.046875 L 600.46875 253.546875 L 549.148438 167.417969 C 547.117188 164.371094 546.609375 163.355469 542.035156 163.609375 C 537.460938 163.863281 501.640625 166.910156 499.097656 166.910156 C 496.558594 167.164062 493.761719 168.179688 496.304688 174.277344 C 498.84375 180.375 539.496094 267.773438 540.511719 270.316406 C 541.527344 272.855469 544.578125 276.921875 551.4375 275.394531 C 558.550781 273.617188 582.941406 267.265625 596.40625 263.710938 C 603.519531 276.414062 617.746094 302.328125 620.542969 306.136719 C 624.097656 311.21875 626.640625 310.203125 631.972656 308.679688 C 636.292969 307.410156 698.539062 285.050781 701.332031 283.78125 C 704.128906 282.511719 705.90625 281.746094 703.875 278.953125 C 702.351562 276.921875 686.089844 254.816406 677.453125 243.382812 C 683.296875 241.859375 704.382812 236.269531 706.667969 235.507812 C 709.210938 234.746094 709.71875 233.476562 708.195312 231.949219 Z M 590.5625 256.085938 C 589.800781 256.339844 553.46875 264.980469 551.691406 265.488281 C 549.65625 265.996094 549.65625 265.742188 549.65625 264.980469 C 549.148438 264.21875 506.46875 175.804688 505.703125 174.785156 C 505.195312 173.769531 505.195312 172.753906 505.703125 172.753906 C 506.210938 172.753906 540.003906 169.707031 541.019531 169.707031 C 542.289062 169.707031 542.035156 169.960938 542.542969 170.722656 C 542.542969 170.722656 590.054688 252.785156 590.816406 254.054688 C 591.832031 255.324219 591.324219 255.832031 590.5625 256.085938 Z M 692.695312 275.140625 C 693.203125 276.160156 693.964844 276.667969 691.933594 277.175781 C 690.15625 277.9375 630.703125 298.007812 629.433594 298.515625 C 628.164062 299.023438 627.402344 299.277344 625.875 296.992188 C 624.351562 294.707031 605.042969 261.421875 605.042969 261.421875 L 668.304688 244.910156 C 669.828125 244.398438 670.339844 244.144531 671.355469 245.671875 C 672.371094 247.449219 692.1875 274.378906 692.695312 275.140625 Z M 696.761719 230.425781 C 695.238281 230.679688 672.117188 236.523438 672.117188 236.523438 L 653.0625 210.609375 C 652.554688 209.847656 652.046875 209.085938 653.316406 208.832031 C 654.585938 208.578125 676.179688 204.765625 677.199219 204.511719 C 678.214844 204.257812 678.976562 204.003906 680.246094 205.78125 C 681.515625 207.308594 697.777344 228.140625 698.539062 228.902344 C 699.300781 229.664062 698.285156 230.171875 696.761719 230.425781 Z M 696.761719 230.425781 "/>
<path style=" stroke:none;fill-rule:nonzero;fill:rgb(100%,72.54902%,72.54902%);fill-opacity:1;" d="M 475.386719 155.894531 C 475.386719 177.019531 458.261719 194.140625 437.140625 194.140625 C 416.015625 194.140625 398.890625 177.019531 398.890625 155.894531 C 398.890625 134.769531 416.015625 117.648438 437.140625 117.648438 C 458.261719 117.648438 475.386719 134.769531 475.386719 155.894531 Z M 475.386719 155.894531 "/>
<path style=" stroke:none;fill-rule:nonzero;fill:rgb(100%,72.54902%,72.54902%);fill-opacity:1;" d="M 408.957031 175.019531 L 408.957031 235.40625 L 471.359375 235.40625 C 471.359375 235.40625 463.308594 185.082031 467.332031 169.984375 Z M 408.957031 175.019531 "/>
<path style=" stroke:none;fill-rule:nonzero;fill:rgb(81.568627%,80.392157%,88.235294%);fill-opacity:1;" d="M 532.753906 256.542969 C 532.753906 256.542969 473.371094 227.355469 473.371094 225.34375 C 473.371094 223.328125 467.332031 210.246094 463.308594 210.246094 C 459.28125 210.246094 425.0625 199.171875 405.9375 215.277344 L 403.925781 228.363281 L 330.449219 276.671875 L 350.582031 350.148438 C 350.582031 350.148438 363.664062 364.238281 359.640625 374.304688 C 355.613281 384.367188 362.660156 435.699219 362.660156 435.699219 L 520.679688 430.667969 L 520.679688 362.226562 C 520.679688 362.226562 525.710938 346.121094 528.730469 341.089844 C 531.75 336.054688 528.730469 320.960938 528.730469 320.960938 L 552.886719 290.765625 C 552.886719 290.765625 549.867188 262.582031 532.753906 256.542969 Z M 532.753906 256.542969 "/>
<use xlink:href="#surface51" mask="url(#mask15)"/>
<path style=" stroke:none;fill-rule:nonzero;fill:rgb(81.568627%,80.392157%,88.235294%);fill-opacity:1;" d="M 347.5625 273.652344 L 330.449219 276.671875 C 330.449219 276.671875 304.28125 390.40625 307.300781 403.492188 C 310.320312 416.574219 332.464844 436.707031 335.484375 437.710938 C 338.503906 438.71875 366.683594 351.152344 366.683594 351.152344 Z M 347.5625 273.652344 "/>
<use xlink:href="#surface54" mask="url(#mask16)"/>
<path style=" stroke:none;fill-rule:nonzero;fill:rgb(81.568627%,80.392157%,88.235294%);fill-opacity:1;" d="M 539.800781 277.679688 L 552.886719 290.765625 C 552.886719 290.765625 564.964844 404.496094 556.910156 415.570312 C 548.859375 426.640625 517.007812 430.785156 517.007812 430.785156 L 516.652344 348.132812 Z M 539.800781 277.679688 "/>
<path style=" stroke:none;fill-rule:nonzero;fill:rgb(24.705882%,23.921569%,33.72549%);fill-opacity:1;" d="M 344.542969 450.796875 C 344.542969 450.796875 315.355469 439.726562 310.320312 460.863281 C 305.289062 481.996094 322.398438 576.609375 322.398438 576.609375 C 322.398438 576.609375 333.46875 648.070312 340.515625 650.082031 C 347.5625 652.09375 378.761719 653.101562 383.796875 644.042969 C 388.828125 634.984375 368.699219 542.386719 368.699219 542.386719 L 485.449219 540.375 C 485.449219 540.375 478.40625 620.894531 474.378906 627.9375 C 470.351562 634.984375 470.351562 659.140625 474.378906 659.140625 C 478.40625 659.140625 522.691406 657.128906 525.710938 651.089844 C 528.730469 645.050781 545.839844 509.171875 545.839844 509.171875 C 545.839844 509.171875 559.929688 461.867188 543.828125 464.886719 C 527.722656 467.90625 344.542969 450.796875 344.542969 450.796875 Z M 344.542969 450.796875 "/>
<path style=" stroke:none;fill-rule:nonzero;fill:rgb(18.431373%,18.039216%,25.490196%);fill-opacity:1;" d="M 516.652344 647.0625 C 516.652344 647.0625 526.714844 640.015625 531.75 647.0625 C 536.78125 654.109375 538.792969 662.160156 516.652344 674.238281 C 494.507812 686.316406 477.398438 683.296875 477.398438 681.28125 L 477.398438 652.09375 Z M 516.652344 647.0625 "/>
<path style=" stroke:none;fill-rule:nonzero;fill:rgb(18.431373%,18.039216%,25.490196%);fill-opacity:1;" d="M 342.527344 644.042969 C 342.527344 644.042969 332.464844 636.996094 327.429688 644.042969 C 322.398438 651.089844 320.386719 659.140625 342.527344 671.21875 C 364.671875 683.296875 381.78125 680.277344 381.78125 678.261719 L 381.78125 649.074219 Z M 342.527344 644.042969 "/>
<path style=" stroke:none;fill-rule:nonzero;fill:rgb(18.431373%,18.039216%,25.490196%);fill-opacity:1;" d="M 437.386719 107.667969 C 433.578125 107.535156 429.773438 108.078125 426.152344 109.269531 C 423.347656 110.398438 420.664062 111.816406 418.152344 113.503906 L 401.265625 124.003906 C 398.335938 125.273438 396.453125 128.179688 396.5 131.375 L 394.390625 147.175781 C 393.855469 151.164062 393.367188 155.429688 395.152344 159.035156 C 396.640625 162.042969 399.484375 164.101562 401.820312 166.515625 C 405.558594 170.390625 408.074219 175.28125 409.054688 180.574219 C 410.261719 187.171875 409.488281 195.117188 414.710938 199.328125 C 417.539062 201.609375 421.390625 202.039062 425.015625 202.25 C 434.929688 202.832031 444.878906 202.445312 454.71875 201.109375 C 456.28125 200.992188 457.808594 200.5625 459.203125 199.851562 C 460.980469 198.800781 462.097656 196.949219 463.140625 195.167969 C 466.914062 188.75 470.800781 181.921875 470.757812 174.476562 C 470.738281 170.792969 469.796875 166.835938 471.5625 163.605469 C 472.5 162.230469 473.511719 160.914062 474.601562 159.660156 C 476.789062 156.582031 477.21875 152.628906 477.574219 148.871094 C 478.714844 136.863281 477.523438 127.722656 468.671875 119.265625 C 460.410156 111.367188 448.65625 107.742188 437.386719 107.667969 Z M 437.386719 107.667969 "/>
<path style=" stroke:none;fill-rule:nonzero;fill:rgb(18.431373%,18.039216%,25.490196%);fill-opacity:1;" d="M 343.4375 569.703125 L 309.847656 740.457031 L 326.640625 740.457031 L 358.832031 572.503906 Z M 343.4375 569.703125 "/>
<path style=" stroke:none;fill-rule:nonzero;fill:rgb(18.431373%,18.039216%,25.490196%);fill-opacity:1;" d="M 451.207031 583.699219 L 472.203125 779.648438 L 486.199219 779.648438 L 473.601562 578.101562 Z M 451.207031 583.699219 "/>
<path style=" stroke:none;fill-rule:nonzero;fill:rgb(18.431373%,18.039216%,25.490196%);fill-opacity:1;" d="M 508.59375 578.101562 L 537.984375 708.265625 L 551.980469 708.265625 L 523.988281 575.300781 Z M 508.59375 578.101562 "/>
<path style=" stroke:none;fill-rule:nonzero;fill:rgb(18.431373%,18.039216%,25.490196%);fill-opacity:1;" d="M 396.621094 578.101562 L 392.425781 681.675781 L 403.621094 681.675781 L 412.019531 578.101562 Z M 396.621094 578.101562 "/>
<path style=" stroke:none;fill-rule:nonzero;fill:rgb(42.352941%,38.823529%,100%);fill-opacity:1;" d="M 319.644531 551.507812 C 319.644531 551.507812 297.25 401.746094 360.230469 397.550781 C 423.214844 393.351562 512.792969 397.550781 512.792969 397.550781 C 512.792969 397.550781 564.578125 393.351562 549.183594 551.507812 C 549.183594 551.507812 563.179688 597.695312 437.210938 593.496094 C 311.246094 589.296875 319.644531 551.507812 319.644531 551.507812 Z M 319.644531 551.507812 "/>
<path style=" stroke:none;fill-rule:nonzero;fill:rgb(42.352941%,38.823529%,100%);fill-opacity:1;" d="M 893.5 612.664062 C 893.5 638.78125 877.976562 647.898438 858.824219 647.898438 C 839.671875 647.898438 824.148438 638.78125 824.148438 612.664062 C 824.148438 586.550781 858.824219 553.328125 858.824219 553.328125 C 858.824219 553.328125 893.5 586.550781 893.5 612.664062 Z M 893.5 612.664062 "/>
<path style=" stroke:none;fill-rule:nonzero;fill:rgb(24.705882%,23.921569%,33.72549%);fill-opacity:1;" d="M 857.914062 622.046875 L 872.695312 595.007812 L 857.972656 618.617188 L 858.132812 608.792969 L 868.316406 589.230469 L 858.171875 606.191406 L 858.460938 588.515625 L 869.367188 572.941406 L 858.503906 585.738281 L 858.683594 553.328125 L 857.605469 594.394531 L 846.558594 577.488281 L 857.472656 597.859375 L 856.4375 617.597656 L 856.40625 617.074219 L 843.621094 599.210938 L 856.367188 618.925781 L 856.238281 621.394531 L 856.21875 621.433594 L 856.226562 621.636719 L 853.605469 647.976562 L 857.109375 647.976562 L 857.527344 645.847656 L 870.242188 626.183594 L 857.558594 643.902344 Z M 857.914062 622.046875 "/>
<path style=" stroke:none;fill-rule:nonzero;fill:rgb(18.431373%,18.039216%,25.490196%);fill-opacity:1;" d="M 880.96875 704.550781 L 839.628906 704.550781 L 828.945312 644.164062 L 889.332031 644.164062 Z M 880.96875 704.550781 "/>
<path style=" stroke:none;fill-rule:nonzero;fill:rgb(24.705882%,23.921569%,33.72549%);fill-opacity:1;" d="M 187.5 296.300781 L 273.5 296.300781 L 273.5 397.128906 L 187.5 397.128906 Z M 187.5 296.300781 "/>
<path style=" stroke:none;fill-rule:nonzero;fill:rgb(94.901961%,94.901961%,94.901961%);fill-opacity:1;" d="M 200.84375 311.945312 L 260.15625 311.945312 L 260.15625 381.480469 L 200.84375 381.480469 Z M 200.84375 311.945312 "/>
<path style=" stroke:none;fill-rule:nonzero;fill:rgb(30.196078%,72.941176%,52.941176%);fill-opacity:1;" d="M 236.445312 326.714844 L 230.421875 337.144531 L 224.398438 326.714844 L 204.34375 326.714844 L 230.421875 371.882812 L 256.5 326.714844 Z M 236.445312 326.714844 "/>
<path style=" stroke:none;fill-rule:nonzero;fill:rgb(26.27451%,32.941176%,40%);fill-opacity:1;" d="M 236.445312 326.714844 L 230.421875 337.144531 L 224.398438 326.714844 L 214.773438 326.714844 L 230.421875 353.816406 L 246.070312 326.714844 Z M 236.445312 326.714844 "/>
</g>
</svg>
